<svg xmlns="http://www.w3.org/2000/svg" viewBox="0 0 349.44 56.71"><defs><style>.cls-1{fill:#231f20;}</style></defs><g id="Layer_2" data-name="Layer 2"><g id="Layer_1-2" data-name="Layer 1"><path class="cls-1" d="M48.57,9.81,43.86,28.16h-31L8.43,9.67A7.86,7.86,0,0,1,16.07,0H41A7.86,7.86,0,0,1,48.57,9.81Z"/><path class="cls-1" d="M43,30.59,42,34a2.72,2.72,0,0,1-2.6,1.92H17a2.71,2.71,0,0,1-2.63-2.05l-.81-3.24Z"/><path class="cls-1" d="M56.82,13.63,50.9,38.49l-.82,3.42A4,4,0,0,1,46.15,45h-35a4,4,0,0,1-3.92-3l-.89-3.49L0,13.63H2.52a5,5,0,0,1,4.87,3.78l4.28,16.67a5.86,5.86,0,0,0,5.68,4.41H38.91a5.88,5.88,0,0,0,5.66-4.33l4.57-16.82A5,5,0,0,1,54,13.63Z"/><polygon class="cls-1" points="16.38 47.56 11.46 56.71 7.8 56.71 8.92 47.56 16.38 47.56"/><polygon class="cls-1" points="48.77 56.71 45.03 56.71 39.98 47.56 47.64 47.56 48.77 56.71"/><path d="M98.08,13.49l.11,2.81-.55,1.1-1.1.55-4.19-.11L91.2,18l-1.11-.05-1,.05-1.59-.11H85.75l-1,.72-.55,1.1.11,2.47-.11,1.05v1.54l.6,1.16,1.11.44,1.21-.06,2.14.28,2.92-.22,2.7.11,1.16.44.55,1.1,0,4.9L96,34.58l-1.16.55-2.25.11-1.1-.11-1.16,0-1.1-.11-1.1.22L87,35.07l-1.21.11-1.1.5-.5,1.1.06,5.83-.11,1,.16,1.76-.66,1.65-1.15.5-2.76.22-3.85-.17-1.21-.55-.55-1-.06-16.52.11-1.26-.11-1.05.06-1.05.11-1-.11-1.26.11-1-.06-1.16-.11-.94.22-6.16L74.13,13l.16-2.26.33-1,1.22-.61,1.54.06,1.15-.11h2.81l1,.11h2.15l1.71-.11,1.1.05L88.94,9l1,.11L92.08,9l1.21.17,3.3-.06.94.61.66,1.65Zm-19.66-1,.11-.28.06-.55H78L78,11.29l.33-.28V10.9l.22.11.28.06.22.44-.06.33.28.33h.22l-.11-.44.22-.17.61.28.27.11.28.05.33-.05.22-.22.38-.28h.39l.11.22-.39.11v.33l.61-.11.66-.22.33-.16.27-.22.22.11.33.11h.33l.28.11h.33l.27-.06.28-.16.61.11.27-.17.22-.66h.44l.06.5.49-.06.33.17.55.33.11-.55.11-.22.17.27h.38l.33-.49.17-.28.22.06v.16l.28,0,.16-.22.33-.33.33-.17-.33-.05-.33-.11h-.28L90,9.8l-.6.28H89l-.27-.28-.33-.22-.33.11-.39.5L87,10.13l-.71.06-.22-.28.27-.22.28.06h.05l-.27-.11-.55,0-.28.06-.38.49-.34.06-.55-.17h-.6L82.77,10l-.66,0-.27.11-.28.06L81.29,10,81,9.8l-.44.22-.33.11h-.34l-.49-.22-.22.39.49.27v.28l-.6-.06-.28-.27-.27-.22-.33-.06h-.61L77.1,9.8l-.33-.05-.33.16-.49.5-.17.27-.11.28.06.49-.11.17-.33-.06-.33.06-.28.16.22.06.22.16.22.22.39.06.33.22-.17.39h-.33l-.33-.06-.39-.05V13h.28l.5.27-.5.33.17.5h.6l.06.38h-.5l-.27.44-.06.28-.05.33v.27l-.06.33-.05.28-.06.66.28.72-.22.33-.17.22.11.27-.22.44.33.44.44.06-.38.27-.34.39,0,.33h.11l0,.44v.38l.39.39-.16.49.05.34.33.44L75,23l-.17.22.34.33.27.17.22.6-.16.22L75,24.39l.05.55.5-.16.33-.17.27-.11.33-.16.28-.22.44-.06.33-.22-.39-.16-.38.05.11-.38.44-.39-.33-.11,0-.39.28.06h.27V22l-.27-.49-.06-.39.06-.33.33-.6-.22-.44.38-.33-.49-.17.27-.38-.16-.22.11-.17.11-.38-.22-.33-.11-.34L77.21,17l.44-.22-.27-.5.16-.55-.44-.38-.11.27-.27.17h-.11l-.06-.28-.27-.55.38-.05.28.16.27,0,.44-.39-.16-.33-.55,0-.28-.11-.27-.17-.11-.27v-.33l.38-.28.55.28.55-.22.22-.22.22-.17ZM74.84,24.06h.28l-.05-.27-.28.05ZM75,23l.06.16H74.9Zm.11,14.8-.05,0H75l.05.11Zm0,3.36-.05,0-.06.11h.11Zm.33-22.07-.38.05.05-.44.61-.22.27-.05.17.33-.28.11Zm1.21.71v.33l-.55.06-.33.11h-.33l-.33-.11.11-.17h.33l1-.33Zm-.49-3.19.27-.06.06.17-.33.05-.33.17-.33-.11.33-.22Zm-.39,4.73-.22-.11,0-.33.11-.05.22.27Zm0,7.38,0-.33-.27.06v.38ZM75.62,31v-.11l-.11.05V31Zm.27-15-.33,0,.06-.33H76Zm-.16,28.57-.06,0-.11,0,.06.11Zm.44-22.35-.39-.11.11-.28.28.17ZM76,37.05l.06-.16h-.17l-.11.27Zm.39-20,.49.34-.11.33-.66-.23-.22-.1Zm-.06,6.12.06.49-.11.33-.22.06L76,23.79v-.33l-.06-.28Zm0,10.79-.11-.22H76l.11.22Zm.5-22.74-.17.22-.27.55-.28-.06.06-.44.22-.27.16-.28.33-.38.17.33Zm-.5,6.66.33.22-.38.11Zm.28,1.32h-.22l-.06-.27h.28ZM76.44,22h.11l0,.05h-.17ZM77.32,26l-.55-.33-.33.22.28.17.49.33ZM76.83,30l-.33-.11-.06.33h.33Zm-.06-15.3h-.22l.22-.06Zm0,18.49-.06-.1,0,.05ZM77,12.45l.11.16-.33.11.06-.22Zm.33,1.21H77l.11.27.33.06Zm0,4.62-.22.06.17-.33Zm.06,6.5h-.17v.16l.17.06Zm.88-11.56-.11,0v.11h.11Zm16,.16-1-.38-1.21-.17-1.16.11-1.1-.11-3,.22-2.31-.16L82.39,13l-1.21-.11-1.05,0-1,.61-.49,1,0,11.29-.11,1,.11,13.49-.16,1.1,0,1,.39,1.1.6.11.22-1,0-1,.16-7.49L79.69,33l.61-1.1,1.21-.5,1.15-.05,1,.16,1.15.06,1-.22,1,.11,2.37-.17,1.71.11,1.65-.22-.06-.66-1.1-.38-2.15-.06-1.81.22-1.05-.22-5,.22-1.21-.71-.44-.94-.11-6.55.11-1-.06-5.23.5-1.21,1.27-.5,1-.16,5.28.22,1.6-.17h3.19l1.65-.16Zm-15-2.2L79.19,11l.11.06Zm1.43-.5-.49,0,.11-.33.44,0Zm1.76,10.13.22-.27.39-.5-.39-.44h-.44l-.11.55h-.49l.11-.55-.61-.11-.27.06h-.33l.27.22.22.16.22.28-.11.27-.22.44.5-.05.38.11Zm-1.76-4.35-.05-.11-.06.11Zm.11,29.13-.05-.11-.06-.06.06.11Zm5.4-29.68-.33-.33,0-.49-.27-.22v.27l.22.22-.28.11-.33.06-.33-.17-.28.22,0,.33.11.5-.39.05-.11-.38-.11-.44.06-.33.27-.11L84.09,15l-.27-.16-.28-.11-.55.11-.16.22-.06.27-.11-.11-.38-.33-.39.33.28.28-.22.16-.28-.16-.27-.33-.33.16.22.44-.06.33,0,.28,0,.27V17l-.11.28-.05.27-.28.61.11.33.33.33.28-.27,0-.44.06-.28.27-.22.33.06.61.11.22-.67.22-.27.33-.11.38.11V17l-.49.34.11.44.55.05.22-.55.27-.17.72-.11h.28l-.06-.22h-.27l-.06-.33.33-.11.55-.05ZM80.9,27.53v.55l.28-.22.22-.28,0-.44-.33.11ZM81,25.71h.06L81,25.6Zm.44-2.14.06-.22h-.22l-.17.27Zm.17.49v.17h.11v-.17Zm1.43-5.5.49-.11-.33-.22-.33-.17-.6.28-.17.27v.33l-.27.06-.11.16H82l.22-.16.44-.06.55.33.27-.27ZM81.84,26v.11H82V26Zm.66-9.36,0,.39L82.17,17,82,16.68V16.3l.33.16Zm-.28,28.8h-.11l-.11.11.17-.06Zm-.11-23.73.17.11.11-.17-.17-.16Zm.11,5.39h.55l.44-.33.28-.11-.39-.11h-.27l-.66.22Zm.11-3.52,0,.28.33.05,0-.22Zm.39-12.5-.22-.27,0-.22.33,0,.28.33Zm-.06,12,.28-.05-.11-.11H82.5Zm0-12.55h-.11v-.11ZM82.88,33l-.22,0-.11.11.22.1ZM83,16h.28l-.11.16Zm.44,12.17.06.16.16-.05-.05-.11Zm.33-17.24-.05-.49.38.11.22.22.22.16.28.17-.33.16-.33.06Zm.44-1.26.11.22h.28l-.11-.22Zm1,6.44.11.11-.11.16h-.11Zm0,11.39,0,.11h.16l0-.11Zm.49,1.16.11-.11v-.11l-.11.06Zm.22-17.89,0-.33.33-.06.11.28v.27l-.11.28L86,11.07Zm.5,4.46-.17.05.06.11.11,0Zm.77,1-.11-.11v.22l.11.05Zm1.48,0,0-.22h-.33l-.22-.11L88,15.47l-.28.17.28.27.11.17.22.16Zm-.11-5.45-.49.11.22-.5Zm-.33,17.45.11-.11V28l-.11.06Zm.28-18.5.22.11L88.5,10Zm.22,18.78h.22l0-.17h-.16ZM89.1,11l-.22-.28.28,0Zm.06,4.13-.11-.17h-.17l.11.17Zm.16,13.71.11.27h.28l-.06-.27Zm.94-12.94-.17-.22L90,15.53l.06.16L90,16l.17.11Zm-.11,16.9H90l.06.11.11.06Zm.28-21.47v.16l.16,0v-.22Zm.16,17.18.33-.06.06-.27-.33.11ZM91,33.86l-.06-.11h0v.11Zm.38-22.74.06.44h.33l-.06-.38ZM91.8,10l.17.11.16.22.22.44.28-.17-.28-.38L92,10ZM92,28l0,.55.33.22-.11-.49ZM92.9,9.91l.11.33.22.44v.88l.11-.11.11-.16L93.23,11l.33-.22,0-.49-.22-.22Zm.33,5.95,0-.28-.22.06.05.27ZM93.07,34l.05.11h.17l-.11-.16Zm.27-.49.33-.28.11-.22-.66.33ZM94,10l.11.06,0-.11L94,9.91Zm.33,5.07L94.06,15v.28l.16,0Zm-.06,1.59-.11-.05,0,.11h.11Zm0,11.46.16.16h.22l0-.16Zm.44-16,.33-.06-.06-.33h-.27Zm0-1,.55.05.33-.55.67.17.27.05.33.11.17-.27-.06-.28-.33.17L96,10.46l-.55-.11-.66.22Zm.5,4.9L94.83,16l-.06.33.28.06Zm.28-.83L95.38,15h-.22l0,.22Zm.55-.77.44-.16.33-.39-.22-.27-.39.11.06.38-.44.06L95.33,14l.33.39.38.16.28.17.22-.17-.17-.11-.33.06Zm1.26-1.59-.33.11.06.22.27-.06Z"/><path d="M134.25,25l.22,1.1v1l-.22,1.16.16,4.45L134,38.27l-.39,1-.55.94-.33,1.1-.72.82-.6,1L129,45.37l-.88.6-1,.44-.88.55-1.1.28-1.16.44-2.2.5-2.75.1-2.65-.22-1-.27-1.21-.06-.83-.44L112,46.91,111,46.47l-.83-.66-1.87-1.1-.71-.72-1.49-1.82L105,40.3l-.33-1-.17-1-.33-1.1V36L104,34.36l0-4-.16-2.2.11-1.05-.06-1.1.11-1-.16-1.21.22-1.05-.28-3.3.17-2.09L103.75,15l.27-.93V10.79l.5-1.1,1.1-.6,5.78.05,1.32.5.61,1v1.16l-.28,1.65v1l.17,1.59v4.41l-.11,1,0,3.41.17,1.1.11,9.69.33,1.16.66.77.82.72,1.21.6,1,.28,1.81.11,1.49-.11,2.2-.72.88-.83.5-.77.49-1,.22-1.76,0-2.81.11-1.1-.06-2,.11-1.22-.22-1,.17-4.35-.17-1.15.11-1.16,0-2.15.11-1.1-.06-5.39.55-1.21,1.21-.5,5.18.06,1.76.49.44,1.21.17.94-.06,4.46.17,1.1-.17,1.05.06,1.21-.11,1.7.05,1.55L134.19,24Zm-29.51,1.59.16.22.39.11.33-.22.16.33v.33l-.49-.05h-.44l-.06.33.44.05.33.45.66-.33.61.16,0-.66-.22-.33v-.22l.27-.11-.39-.17-.11-.27.23-.72H107l-.5-.27-1.16-.17.06,1.1Zm.44,7.66.38.22.22-.44v-.39l-.16-.11.6-.05v-.22l-.71-.39-.17.27-.16.39-.44.39Zm-.39-3.64v.44l.06.61.33.33.33.05.71-.05.22-.44h-1.15l-.39-.5Zm.06-11L105,20l.22-.28-.11-.22Zm1.37,10,.06-.39-.28-.44-.55,0-.44-.44-.16.55,1.1.55Zm-.77.05-.49.22.33.28.49.05V30Zm0,7.93-.11.27.33.56.55-.17.27.06-.33-.56-.38-.33.66-.44.66.11-.33.11-.39.06v.16l.67.39.27.77h.39l-.22-.83-.17-.6-.22-.33.11-.44-.27-.55-.17-.11.39-.55-1.27-.28L105,35l.11.49.49.61.55-.39.17-.27.16.27.22.11-.1.17-.06.16-.11.22-.72,0,0,.44v.27h-.44l-.17.33Zm-.28-16.19.39.06-.33.82.27.56.39.33.49-.39-.38-.83.33-.33-.5-.49Zm.06-5.83.11.11-.11.11.27-.11.17.22.22.22V15.8l-.39-.22Zm0,9,.88-.06.72-.33h-.5l-.55-.49-.44.44Zm.88-4.57-.11-.5-.61-.11.28.39Zm-.17-1.93-.11-.27-.27-.17-.06.17.28.11.11.16-.22.22-.06.39.17.22.33-.22.27-.33Zm17.84,28.63-.27-.11-.17.11L123,46.3v-.44l.39,0-.22-.61-.17-.38-.44.44-.22.93-.55,0,0-.55-.1-.28-.5.5-.66.55-.28-.11.11-.61.06-.33-.66.22-1.43-.33-1.27.11-.11.39-.55-.39-.66-.38-1.38-.61-1.48-.44-1.38-.94-1,0v-.28l-.33-.82-1-.72-.61.22-.16-.27.22-.39-.11-.38-.22-.44h-.72l-.49-.83-.61-.6-.28.27-.77.33.33.72.72.38v1.05l.66.88.39.55.44.55.33.61.55.49.71.28.55.44.88-.11.17.22-.33.22.05.22.44-.17.17-.16.33.33h.83l-.33.33-.17,0,.33,0,.17.6.66.22.82.33,1.43.22h.88l1.49.28.66-.17.66-.11.88.5.55-.72h.17l.11.44.27.06.45-.55.71.33.33-.5.5.22.33-.22Zm-18-11.23.28-.11-.06.16Zm.28-18.39.27-.06.06-.38-.33.05Zm0,3.63.27.11v-.33Zm.27-7.76.06.17.39-.06-.06-.33Zm.28,21,0,.44.33-.11v-.44Zm0,5,.33.33-.33.22Zm.61-8.26-.33-.11V31l.38.05Zm-.06-5.12-.16-.11-.06.28Zm.17,15.25,0,.22h-.27l-.11-.22Zm.66,1.27.49.27-.16.33-.5-.16-.11-.17.17-.22Zm22.18-12.83.17-1-.11-1.1.05-1.21-.16-2.09.27-2.26-.22-4.79.22-2.2L130,12.94l-.6.06-.28,2.69.11,1.71L129,21.69l.16,1.11L129,24.39l.22,2.75-.17,1.11.11,1L129,35.79l-.49,2.09-.55.94-.39.93-.94.83-.66.71L123.4,42.5l-1.6.44-2.58.23L116.35,43l-3.08-1.1L111.9,41l-1.16-1.27-1-1.93-.49-2.09-.11-1.65,0-2.64-.11-1,.17-3.36L109,23.84l.22-1V19.38l-.16-1,.11-1L109,16.24l.17-2.2L109,13h-.72L108,14.1v3.3l-.16,1v9.75l.16,1.1L108,35.79l.16,1.1.77,2,.5.88,1.48,1.76,1.49,1.21,2,1,1,.27,3.64.44,1.76-.11,2.15-.33,1-.33.88-.39,1.88-1.15,1.54-1.49,1-1.76.77-2,.16-1,.17-3.36Zm-22.29,9.86.27.11v-.33l-.27-.06ZM109,43.66l.33,0,0,.16-.22.11ZM110,32.48l.16.12.28.1.22.11.05.28.11-.39-.33-.1-.33-.23Zm.16,1.33v-.17l0,.17.27.33.22.55.83-.22.61.33.11-.28-.11-.33v-.27h-.39l-.33-.22.17-.39h-.23l-.6.55Zm.22-1.71.72.16.39-.49.1-.39-.33.11,0,.33H111l-.39-.16Zm.06-7.1.11.22.55-.17.44-.27.22.16.11-.55-.38.11-.5.28Zm2.31,12.22v-.83l-.82-.11-.11-.22,0-.38-.61-.33-.55-.33-.27.22.11.44.22.66.33.55h.16l.5.38-.66.33.55.72-.39.66,1,.66.5.28.71.6.72-.05.33.05v.17l-.17.27.22.17.06.33.27.16.72.17,1.1.33,1.32.27.61-.27.6-.66.22.16.55-.33.11-.6-.27-.17-.22.55-.77-.38-1.54-.28-.72-.27-.61-.39-.66-.71-.77.22-.66-.83-.88,0,.28-.56.16.06-.16-.28Zm-2.15-6.77,0,.22.16-.06v-.22Zm.11-8.21.28.06.22.05-.17-.11-.27-.11Zm.39,7.6-.06.55.33.33.45-.33.55-.49-.67-1-.82-.06-.06.28.39.05-.11.28-.06.16Zm.11-3.58v-.33l-.33.28v.27Zm-.33,17.57.22-.17L111,44Zm.55-20.21-.22.28h.44l.28-.28Zm.72,3.3-.45.17-.44-.11.06.44.55.33v-.5l.22-.22Zm-.45,3-.44-.11.39-.22Zm-.27,5.62.22.16-.28.17ZM111.62,17l.39.11-.11-.27Zm.5,13.71-.28.06L112,31l.16-.06Zm.49,1.76-.6.17-.17.66.55-.22Zm-.44,11.84.11.17h-.16l-.17-.22Zm.22-16-.27.05,0,.17.28.05ZM113.22,46l.27-.28-.11.5Zm.27-1.71.33.11v.28l-.27-.06Zm.44-4.24h-.27l.27-.33Zm1.87,6.17.55.16-.55.17-.66.11,0-.28Zm.94-5.29-.94-.44v-.33l.94.28.66.27.88.72-.22.27Zm1.54,4.85h.33l-.44.33-.33-.28Zm.5-4.41h-.17l.17-.27Zm1.7-.93.17-.11,0-.22-.22,0Zm.88,6.11.06.16-.39-.05Zm.94-5.95h.17l.22-.05.22-.17-.22,0-.28.16Zm1-1.21.22.55.39.5-.55.44.33.33.71-.61.61-.27.71.11.17-.11-.39-.5-.6-.71-.28-.11-.49.11Zm1.27.55h-.66v-.66l.6.11Zm.49,4.46-.22.28.17.22v-.22l.27-.28Zm.5-5.94.27.38.33,0-.11-.39h-.66Zm.33-1.55.49.11H127l.11-.33v-.16l.22-.28-.56-.49-.71.49Zm1.54,1.16.11-.33-.72-.28-.55-.05.39.38Zm-.88-8.59-.22.44.39.39v.44l.16.77-.22.33-.17.05h.23l.38.17,1,0,.5-.33-.06-.44-.6-.05.11.49h-.61V31l.39-.17.44.11-.17-.22-.33-.11.06-.27-.11-.28-.78.11-.49-.22.66-.16.72-.22v-.11l-.44-.06-.45-.66-.55.33Zm.38,15.64,0-.39h-.5V45Zm-.44-7,0,.33.22.06.06-.22ZM126.54,28l.38.11.06.27.39.28,0-.5-.33-.5h-.55Zm0-15.92.06.22.22.06-.06-.11Zm.33,11.9.23.11.16.27h.33l-.11-.16Zm.89,10.62.11-.49.38-.44-.27-.28-1-.16-.06.38.61.44-.22.44H127l-.06.28.44-.11ZM127,22.24l.21.11.06.11h.22l-.11-.11Zm.55.78-.28.33.44,0,.22-.27Zm1.54,20.31L128.8,43l-.22.11-.72.11-.55.22.28.5.33.27.22.11-.06-.27-.16-.28.55-.05ZM127.59,26.7l-.11.28.22.22.11-.33Zm.44,1.55-.06.6.5.33V28.8l-.22-.39-.11-.27Zm.22,6.82.05.39.17-.22-.11-.22Zm1.59,7.32.28-.22.11-.22-.17.06-.33.16Zm.44.5-.49.5-.06.49.33-.38Zm.39-2.42-.28.11.28.05Zm1.21-.72-.11-.55-.55.06-.55-.06-.06.44.66.28Zm-1.21-28,.16.33.33.11-.16-.33Zm.44,29.51h-.28l-.11.27H131Zm-.17-3.42-.05.34.22.11,0-.22Zm.39-26.64h.27l0-.17-.22,0Zm.16,29.18-.05.16.27-.27Zm.22-28.74.22-.11h.23l-.23-.06Zm1.11,23.84.33-.17-.39-.66-.83-.16v.27l.61.28Zm-.39-11.29.17-.44-.23-.05-.33.44.45.27ZM132.27,12l.1.17.39.05.28-.11-.28.06-.27-.17Zm0-.93.39.11.16-.33-.33-.06Zm1,25.1h-.49l-.06.17h.55Zm-.49-20.64.38.05.06-.44-.39-.05Zm.55,18.06-.33,0-.11.33h.33Zm0-20.21-.06-.22-.27.06.05.27Z"/><path d="M174.6,46.08l-.22,1.16-1.16.27-1.21.11h-2.2l-1.1-.11-1.21.11-2-.11-1.38-.33-1.1-1-.66-.88-.5-.93-.71-1.05-1.54-2.75-.39-1-1.43-1.93-.88-.93-1.38-.44-1,.05h-1l-1.1.55-.5,1.1.11,3.42-.16,2.37.22,1.15L152,46l-.39,1-1.7.55h-1.66l-1.15-.11-2.26.17-1.05-.06-1.1-.55-.38-1.21-.17-4.29.11-1.16-.22-3.19.17-2.26-.17-1.21.06-2.09.11-1.16V27.75l-.17-1.6.17-15.41.44-1.16,1-.49,1.22.05L146,9l2.26.22,1-.17,3.31.11.93-.11,1.22.11,1.1-.11,1.21.06L158.63,9l1.38.11,4.57.94,1.93,1,2.75,2.09.5.83.77.82,1.48,3,.28,1.1.16,1,.28,1-.06,4.35-.6,2.09-.39.94-.6,1-.39,1.05-.66.93-1.54,1.49L167.88,34l.17,1.32,1.65,2.86.72.88.55,1,.66,1,.49.94,1.76,2.7Zm-31.6-22,.05.28.22.22-.16-.28Zm.33,5.84h-.17l-.11.22h.28Zm.44,1-.11-.11h-.17l.06.11Zm.22-6-.06-.28-.22-.05v.27Zm.49,14.48-.11-.17-.16-.11,0,.11Zm.78,3.57-.17-.22h-.22l.17.22Zm20.81-.88.44.88,1,.94.72-.05-.28-.94L166.84,41,166.4,40l-4.13-6.5-.17-1.21.83-.77.88-.44.93-.72.83-.66.66-.71,1.27-1.71.38-1.1.5-.88.16-1,.06-1.6L168.38,20l-.44-1.16L166,16l-.77-.71L163.48,14l-1.1-.44-2-.49-3.41-.22-1.1.11-2.37-.17-5.34.17-1,.49-.72,1,.17,1.32-.17,1,.11,2.21-.16,1,.11,1.1-.11,1.21,0,1.16,0,3.41.16.94-.16,1.1.11,11.4-.17,1,.33,2.15.66.11.33-1.16.06-1.15-.17-1,.17-1v-1.1l-.11-1,.22-1L147.51,34l.66-1.1.94-.61,4.13.11,1-.11,1.54.11h2.75l1.49.27,1,.94.61,1,.6.82Zm-3.58-11.67-2.2.66-10.52.11-1.71-.38-.44-1.1.17-3.2-.11-1.21v-1l-.06-1.1.11-.94-.22-1.05.06-1.15.16-1-.16-3.25.71-1.05.94-.55,1.27.06,2.64-.17,7.27.22,1.1.28,1,.49,2,1.16,2.09,2.64.5,1.05.22,1-.06,3.36L167,25.55l-.44,1-1.48,1.88-.77.77-.94.55Zm-12.66,6.22.27-.44,0-.38-.22.11,0,.33,0,.33Zm.38-8.8-.22.33-.05.16.16-.11.11-.22Zm.06,17.28-.17.11-.11.22.28-.05Zm.33-28.57-.28.05.06.17h.22Zm.49-5.07.22.06.06-.28ZM161.66,26.1l.61-.94.44-1.1.16-1.48-.11-1.6-.38-.88-.55-.83-1.71-1-2.53-.33-3-.06-.88.06-1.1.55-.66,1.1.16,6.16.55,1.16.94.49h1.21l1.1.17,4.3-.39.82-.38ZM152,15.69l.22,0v-.22h-.17Zm.49,18.72-.11,0-.11.22.22.05Zm.33-23.67.17,0,.22,0-.06-.17.06-.11-.22.11Zm1.54,4.84.06.28h.28l-.06-.39Zm.72.72h.17l-.06-.17-.11-.05Zm.22-5.34.77-.22.17.16-.11-.38-.5.22-.33-.06Zm.77,4.51.17.39.44-.17v-.27l.11-.11-.17,0-.22,0-.16-.11Zm1.32-.44-.6.88.11.44-.39-.11-.22.17v.22l.06-.22.16-.17.33.28.44-.55.22-.5.39-.22Zm.28-4.18.11.22L158,11l-.11-.16Zm.38,17.89h-.27V29h.27Zm0-12.72-.22.06.06.22h.22ZM159,35.24l-.55.16-.22.22.28.17.49-.28Zm-.33-19.82.28.16-.06-.16.06-.11ZM159,9.91h.28V9.64L159,9.58Zm.5,1.32.06.33.44-.11-.28-.22Zm.39-.71.11.22.11,0-.06-.22Zm.33,5.12-.22.27.22.11.11-.33.22-.16-.11-.39-.28.22ZM160.4,36l-.17-.11-.11.17.11.05Zm-.17-24.17h.39l.27-.33-.55-.11Zm.22,5,.06.44.11.12,0-.45.11-.49Zm1.16,11.62-.28-.49-.44-.23.06-.22-.06-.11-.11.11v.22l.28.56Zm-.77-12.55h.22v-.22h-.22Zm.33-4.74h.22v-.27h-.17Zm.49,29,.22,0,0-.11-.17-.22-.33.11V40Zm-.16-2.26h.27l-.05-.22-.33.06Zm.55,4v-.22h-.28l-.05.27Zm0,1,0-.16-.17-.11.06.27Zm-.16-25.43.38.33.61.06.55-.11v-.33l-.55-.28-.22-.17-.11-.16-.06.22.33.16.17.33h-.44l-.55-.16ZM162,28.3l.66.06v-.5l-.6-.05Zm1.76-2.53-.6-.11-.28.6-.38.17-.11-.28-.33.39.11.49.27-.11h.22l.33.17.11-.61ZM162.1,11.29l.28.16.05-.38-.27-.17Zm.55.6h.44l-.05-.33h-.33Zm.22,29.79-.16-.06.33.28-.06-.11.06-.17Zm.28,2.7-.28-.11-.05.22h.27Zm0-4.46-.27-.11-.06.33.28.16Zm.06-21.2.33,0-.22-.33-.22.11Zm.22,25.16.22-.61.27-.49-.55,0-.22.67Zm.11-1.54.27-.44h-.33l-.22.22-.05-.06ZM163.31,17l.22.06.17-.17h-.17Zm.17-5.28,1.1.49.77.61.22-.33-.83-.55-.88-.5-.27-.11Zm.55,8.42-.39.28-.16.55.44.49.72.22.05.33-.38.5.21.66-.16.17h-.22l-.11.38.38.17-.22.16-.05.28v.22l.11.55h.6l0,.55.72-.06L166,25v-.77l-.06-.55-.27-.17.55-.22-.06-.55-.71.17-.39-.17-.17-.39-.11-.33.34-.16.49.33.66-.33-.22-.77v-.33l.06-.77-.28-.44,0,.71-.28,1v.66l-.38-.55-.06-.55-.33.06v-.22l.44-.39.33-.44h-.72Zm.38,6-.6.22-.17.66-.16.55.11.33.22-.33-.06-.55.39-.33Zm.17,18.77.06-.71-.78-.06-.16.5v.22l.05-.22.28-.33.16.16-.05.55-.06.06Zm-.83-12.66.06.16H164v-.22ZM164.14,21l-.22-.22.27-.38.17.16ZM164,19.27l.05.33h.56l-.06-.38Zm.44,14.65.11-.28.11-.33-.28-.11-.16.5Zm.11-9.75.66.06.17.55-.11.16-.56-.44-.38-.22Zm-.17,10.46.23.5h.66l.33.55h.16l.17-.11-.22,0-.17-.27v-.28l-.44-.38Zm.23-14.2-.17-.17h.33ZM165,45.86l-.11-.38-.39.27.28.22Zm-.28-27,.06.28.17-.22.38-.06-.16-.16Zm.5,25.22.06-.17-.17.06-.11-.17-.11.11.11.22Zm0-20.7-.27.11.16-.55ZM165,31.71l.17-.16-.11-.22-.11.16Zm-.05,1.1.16-.11.06-.27-.11.17Zm.49-6.66-.38.17-.06.22.28-.06Zm-.22,16.91-.11.11.17-.11-.17-.17Zm.28-29.73-.17.16.28.06.05-.17Zm3,17.78-.55-.11-.5-.44-.38.49-.88-.33-.33.28.27.27.39-.22.27.28-.27.71.16,1,.39-.06.05-.66.33-.94.28-.27.11.49h.49ZM166.67,44.6l-.49.22-.28.55.39-.28Zm.77-7.11-.82-.49-.66.27.44.33.6.33Zm-1,8.37h-.33l-.05.39.22-.06Zm-.27-33.69h.33V12h-.33Zm.27.61-.11.27-.11.33.22-.27v-.22l.28-.06-.06-.22Zm0,23.34-.17.44h.61l.22-.44Zm.22-5.78-.06-.28-.16.06-.06.22Zm.16-16.79-.05.6.27.06.11-.61-.05-.44Zm.61,1.26-.28-.05L167,15l.27.06Zm-.17,23.9L167,39l.22.44.16-.33Zm0-4.24-.16.05-.06.39Zm.28,2-.11-.28-.33-.05.05.16Zm-.11-22.19.33.39.11.77-.66.11.33.55.49.22.33.27.61.11.27-.55-.11-.27.11-.06-.27-.27-1.16-.5.17-.16.33-.22-.06-.22-.33-.06,0-.33-.22-.27Zm2.47,31.55-.49-.88-.39-.44.06-.22-.17.11-.11.27-.38.17-.11,0,.16,0,.44.22-.55.55-.71-.22v.38l-.28.22-.11.22v.28l.22-.17V46l.5,0,.6-.22.77-.22-.22.33-.33.16h.33l.33.11ZM167.61,29l-.06.28.22.16h.28l-.06-.6Zm.44-.77-.06-.27-.16.11-.06.22Zm0,2.15v.33l.27-.06v-.33Zm0,10.4.6.66.28.17-.06.16.28,0-.06-.17.11-.27.44-.33.06.27.39.22.22-.27L170.2,41l-.5-.38-.39-.33.33-.44-.27,0H169l-.38-.33-.55.55Zm1.43-23.45-.22.06.11-.45h-.28l-.16.55.55.34.44-.56.17.45.38.55-.11.77H170l-.22-.66-.72.05-.11.55.06.17.27.6.06,1.38v.71l.11.94v.44l.22.33.5.39v-.55l-.28-.17-.06-.33.61.33.06,1.1-.44.06-.94.16.16.83-.82,1.15-.11.94v.77l-.06,1.32.83.28,0,.16-.44.39.17.27.27-.16.33-.44-.16-.66-.22-.66.38-.17.56.17.22-.5-.39-.38.44-.72.44-.28.06.5-.33.38.05.28.5-.5-.22-.66v-.49l0-.94.61-.22.33-.6-.39-1.32.06-.66.27.16v.11l.11-.17v-.1l-.11-.28.17-.66-.22-.33.11-.28-.17-.66-.6.39-.28.16.17-.44-.61-.16.06-.17.33-.55.55.39.33-.44-.28-.33,0-.22-.17-.33-.16-.5-.5-.55.22-.17.22-.27-.33-.39-.38-.27H170l.11.05.22.39-.06.39-.44-.28Zm-.83,21.64.11.16.17-.05v-.22Zm.33,3.68-.27-.22.16.33.17.17ZM168.87,41l-.05-.16.33-.22.16.11-.11.22Zm.61-14,.11.22-.39-.06Zm.11-1.05.33.06-.22.33h-.44Zm.27,16.68.89.17-.44-.66-.78-.22Zm1.49,1.6-.16-.22-.5.44-.27-.27L170,44.1l-.05.61.6.27.28.33-.44.17h.05l.28.22.33-.5.11-.49Zm-.55-23-.27.06.05-.33h.28Zm.55,22-.11-.39-.22.28.11.33Zm.66,1.54-.38.11v.44l.33-.16Zm.55,1.32-.05-.38-.33,0,0,.39Z"/><path d="M208.68,34.36l-.06,3.41-.16,1-.33,1.1-.44,1-1.11,1.76L205,44.38l-1.76,1.21-2.86,1.54-5.4,1-1.76,0-1.59-.17-2.32-.16-1-.39-1.21-.16-4-1.82-.93-.6-1.6-1.6-1.38-1.71-.88-2.2-.22-1L178,37.22l.39-1.16,1.1-.49,1.1,0,1.1-.11,4.18.11,1.11.44.82,1.1.83.77,1,.61.82.39,1.27.33,1.65.11,1.54-.06,2-.6.88-.5.88-.77L199,36l-.27-1.43-.77-.66-2-.83-1.1-.05-1-.17-4.51-.33-2-.44-3.14-1.05-1.93-1.15-1.54-1.43-1.38-1.82-.71-1.93-.39-1.54-.05-3.69.77-3.19.55-.88.38-1,.72-.72.6-.93,1-.67.77-.71,1.1-.66.88-.33.88-.55,1-.39,4.35-.88,3.08-.05,1.21.27,1,.11,1.16.22,3,1,3.52,2.42.72.83.55.88.71.88.89,2,.44,2.15-.5,1L206,21l-1-.11L204,21l-3.64-.11-1.7-.55-1.82-1.92-.83-.66-1.21-.44-3.52.1-1,.23-.77.33-.94.71-.6.77-.17,1.43.06,1.49.88.88.82.44,2.32.83,5.56.71,4.51,1.1,2.92,1.32.93.78,1.33,1.7,1.1,2,.27,1ZM180.1,24.12l-.33.27.17.28.05.16.06-.38Zm.83,0-.06-.17-.22.06.11.22Zm.28-1.93.1-.22-.27.11-.06.16Zm-.11-6.06.16.06.11-.33h-.27Zm.38,10.63-.11-.22-.11-.11.05.33Zm.16,13.71h-.21l-.17.22h.22Zm.23-26.7.27.49.06-.33.33-.22v-.27ZM182.42,26l-.11-.33h-.22l.22.11.05.11-.16.22-.22.22.22.22-.11-.22Zm.16-11,.06.22.16.17-.16.11-.44-.06L182,16h.28l.44-.22.16-.33-.16-.28Zm13.6,29.29,1.1-.22,3.08-1.32.83-.61,2.48-2.42.33-1.1.38-1.1V34.19l-.27-1-.5-.94-.66-.93-.82-.77-1.82-1.16-3.42-.93-1-.06-1.1-.22-4.46-.44L188,27.14l-1-.44-.94-.55-.77-.66-.88-.82-.38-1-.28-1.1-.16-3.25.44-1,.6-1,.77-.94L187,15l3-1.26,1.1-.22,1.66-.06,1.7.17,2.21.38,1,.39,1.1.66,2.7,2.14.83.12-.28-1-1.43-1.59-.88-.66-1.93-.94-2.75-.77-3.75-.06-3.35.83-1,.39-1.44.93-1.87,1.93-.82,1.93-.28,1.1-.22,1.43.06,1.59.71,2.1,1.21,1.7.77.77,2,1.11,1.87.66,1.16.05,1,.28,4.34.27,3.14.72,2.86,1.48,1.27,1.82.39,1v1.59l-.17,1.65-.27,1-1.44,1.76-1.81,1.37-1,.44-1.1.33-1.71.39-2.42.22-2.7-.16-1.92-.56-2-.93-2.53-2.31-.77.05.22.83.55.77.82.93,1.71,1.22,2.92,1.1,2.09.38,3.47,0Zm-13.32-5.67.27.06-.16-.22h-.22ZM184,27.14l-.44-.33H183l-.16.44.55.33.22-.33.22.17Zm-.22,17.62-.33-.22-.17-.27-.16-.06.33.33.22.28.11.16Zm-.61-32.2h.28l.16-.17-.22.11ZM183.35,27l.28.16-.28.06Zm.72,16.57-.17-.11-.16-.17,0,.23.11.22ZM184,13.66l.33-.22.11-.28-.28.11ZM184.67,28h-.44l-.16.27.38-.05Zm-.55-16,.11.39.17-.23.11-.33.16-.22-.16-.05v.27Zm0,25.38.06.22.33.11.27.28-.05-.17-.22-.17-.17-.22ZM185,12.61l.16.06.33-.28.39-.06h.39l.05-.22h-.5l-.38.22-.33.17-.06-.11Zm.66,6.5-.28.11-.11-.22H185v.33l.22.27.16-.22.44-.05.28-.22.39-.06-.06-.33-.5.17ZM185,20.32l.11.11.55-.11.16-.33-.44.05-.16.33ZM185,22l.55-.06.39-.44.05.44.61.28.44.16-.49-.66-.61-.38-.28.05-.27-.16.11-.28h-.28l.06.33-.28.33Zm1,7.65.5.17.17-.5-.67-.05-.22-.22h-.33l.11.16-.05.44Zm-.22,15.47-.05-.33-.17.11v.33ZM185.94,30l-.28-.05v.38l.28-.05Zm.77-13-.16.11-.61.61.38-.17.28-.28Zm-.77,6.77.16.22.17.06-.11-.11Zm.22-3.91-.06.22.17.11,0-.22Zm.22-.33h.22l-.16-.22-.22.06Zm.39,4.63.33.33.22-.17.33-.22-.33,0-.17-.77-.6-.11-.06-.22V23l-.17.44Zm.11,6.33-.33-.11-.23.22.39.11Zm-.5-9.91.11.27.22.06v-.28Zm0,24.44.22-.22-.22.17Zm.83.39-.44-.33-.39-.06.17.33,0,.22.28.11Zm-.55-33.75.27.33.28.16.11-.33-.22-.49h-.33Zm.77,5.89.16-.33-.44.17-.22.33-.22.38L187,18Zm-.5,7.38.28.16.16.44.28.22.22.44.49.11.44.17.39-.06.11.17v-.22l-.22-.17.44-.27.55-.22,1-.11-.88.82.16.5.77.22.83.05.77-.16.83-.44.27.11L194,27h-.44v.27l.83.11.88.06h1l.77.11.72.28.82.27.28-.27.33.05.38.61.83.11.55.33.66.33.44.05.17.22.55.61.71.77.55.66.66.11.06.22v.33l.38.33.17.39L206,33l.66.16-.21.17.05.22.11-.17.44.22-.22.44-.55,0,.33.49.5.5.44-.39-.11-.38.27-.22v-.5l-.66-.44-.72-.44.33-.22.72.22.06-.17L207,32l.06-.66-.11-.22-.16-.17-.23.44-.66-.66.17-.77-.22-.22-.5-.16-.71-1.1-.94-.44-.22-.11-.22.33-.27-.39-.94-.28-1.38-.77-1-.11-1.87-.38-1.27-.39h-.77l-.44.11-.44-.27-.11.33.61.49-.06.66-.44-.44-.49.17-.11-.22-.33-.39h-.44v-.55l-.83-.33-1.32-.44-1.49.11-.6.55-.44-.16.66-.44.22-.28-.5-.27-.44-.11v.49l-.49-.11.16-.6-.27-.55-.22-.06-.11,1Zm.22-6.39v.17h.28Zm.17,22.19.16.49.22-.16.28-.28-.11-.38-.22.22-.11.38-.06-.16Zm1.59-23.95L189,16l-.44-.55.05-.16-.16.11-.06.33-.27-.11.33.44v.66l-.39.55.33.22-.11.17.17-.17.27-.44.28-.17ZM190.29,30l-.17-.22-.27.16-.22-.05-.83.27-.77.44.5.17.16.27v.06l.72-.5.82-.33Zm-1.87-3.86-.28-.27.33-.22Zm-.22-14.53.22-.22v-.33l-.06.22Zm.11-1.16.22-.11.22.11-.22-.16ZM189,39.92l.22-.11V40l.22.16.06-.27-.28-.22.06-.17-.11.17Zm.44,1.37-.33,0,.22.27.22-.11Zm1.21-25.6,0-.27.61-.28,1-.22-.05-.49h-.44l-.22-.06-.33.44-.67-.11-.38.11-.39.22-.22.22-.27.11.27,0,.22-.22.5.49Zm-1.32-5.56.22.33.22-.33-.22.11Zm1.05,5.07,0,.16-.33-.11Zm.66,16.68-.06-.22h-.27l-.17.27.17-.11Zm2.15-.11-.61-.44-.77-.94-.5-.11-.33-.05.06.22.22-.06.5.39.55.71.49.55Zm.33-15.69-.11-.06-.17-.22h-.33l-.6-.11-.44.33-.17-.44-.55-.05.22.77.55-.17h.39l-.17.39.55-.06.83.06-.06-.39Zm-1.6,15.69-.22-.11-.11-.11.17.27Zm-.11,9.85.28,0v-.22h-.22Zm0,.55.17.22.11-.16L192,42Zm.22-31.1h.22v-.22l-.22-.11Zm.72,15-.28-.28.66.06Zm-.28,15,.17.17h.22l-.33-.33Zm7.1-6.27.55-.22.11.38-.33.22.55.44.17,1.05H201l.11-.33L201,36l.44-.33.28-.17.16.11-.22-.22-.28.11.06-.55.66-.05.17.33.16-.17.17-.33-.5-.05-.55-.22-.28-.28.33-.11.39-.22-.44-.16-.11-.56-.61-.77-.71-.16-.17-.72-.6-.33v.33l-.06.22-.16.11-.5-.77-1,.11-.17-.44H197l-.33.28-.45-.06-.38-.33.11-.05-.72.05-.55-.49-.11.11-.93-.22-1.1.38.27.5.28.22.11-.06.44-.05.33.38-.06.55h.39l.33-.38.49.05h.55l.77.28.44-.5.12.28v.27l.16.39.28.66,1.1-.11-.17.44.55.77Zm-6.38-19.44.16-.11-.27-.38-.39-.22-.05.16Zm.22.66,0,.11-.33.22-.33-.33.11-.22.28.17Zm-.11,14.48.05.17-.22.27-.05-.22Zm-.11,11.29,0,.55.33,0,.11-.38Zm.38-.72.39,0,.11-.22h.33l-.06-.17-.27.17-.39.11Zm8.92-25.93.44.28.44-.11.33.38-.55.22.06.28.16,1-.44.67L202,18l-.72-.17-1-.22-.55-.39H200V17l-.33.16-.33-.22h-.55l-.11.39v.06l-.49.21-.28-.44.33-.33.61-.27.16-.44-.66.22-.71.05-.28-.22-.55.28-.28-.28-.21.06.05-.55.22-.33.11-.28-.33.06-.5.22-.27-.22.16-.22-.88-.33-.66.16h-.44v.44l.5.22v.17l-.06.22h.22l.17-.22.33.27.93-.22.06.94.33.27.5.44.71.39.72.5.11.55-.22-.06.22.17.38-.06,1,.66.83.33.88.5-.06-.22V19.6h.39l.11.06L202,20l.71-.27.66.49.33-.11.06-.11h.11v-.11l.27-.11.5.11.55-.05.55-.11.11.22.33-.39.72-1.37-.72-.72-.06-.28-.27-.27-.28-.06-.22-.38.55.11.11-.5-.49-.05.16-.83-.55-.44-.44-.49-.49.16-.33-.05-.39.44-.38-.22-.44.44Zm-8.59,15.09.61.27-.28.44-.44-.33Zm1.27-13.71-.28-.39-.44.06.06.16H195l.11.11-.06.22Zm-.55-6.5.38.39.5.33.33,0-.11-.38-.44-.22-.17-.28.28.11V9.8l-.28.06-.27.16Zm.77,37.22-.28-.11,0-.22.27-.28-.22-.22-.22-.11-.16.17.38.77Zm-.55-6.5.22-.05.11-.11-.17.05Zm.33-.49.77.11-.11.6-.11-.05v.27l.38,0,.23-.39.21-.44.12.28.16.6.28-.16v-.39l-.11-.22-.89-.33-.93-.11Zm.22-25.49.38.11-.16.16-.39.06Zm.16,26.64-.22,0,.06.22.27.11Zm.55-14.59-.33-.44.06-.38.44.11v.49Zm-.05,19.44L196,46l-.22-.06.11.33Zm.44-34.74.28.11.22.16-.17-.27-.22-.22Zm5.67,34.08-.11-.5-.5.06-.49-.06-.33.06-.61-.5-.33.22-.05.17.44.27-.55.44-.44.28-.39-.33.17-.22-.33.22h-.06l.06,0-1.38-.11.39.5-.61.16-.17.22.06.28.11-.11-.11-.17.5-.05.82-.33.06.66.77-.33.6-.22.77-.33,1-.22Zm-4.9-14.32-.33-.05.22-.22Zm-.11-15.47.17-.11-.06-.27-.22.16Zm.22,26-.33-.06.33.11.33-.16.11-.17.55.06.17-.5.11-.22.11-.11.16-.11-.16-.77-.5-.6-.33.27.11.39h-.38l-.17.22.22.38-.27.5Zm0-25.44.06.39h-.28Zm0,15.47.17.28-.28-.11Zm.33-19.93.22-.05-.05-.28-.17.06Zm.61,33.2-.28-.27v.49l.33.17Zm.49-4.46,0,.11-.11.06v.05l-.17.11-.33.06.28-.5Zm-.27-13.05-.28-.16v-.33l.28.11Zm-.06-16.95.39-.06.33-.27-.39,0Zm.28,21.14.16.38h-.38Zm0-14.09-.06-.33v-.06l.28.22Zm.44-5.23L199,12h-.27l.38.78.17-.06Zm-.28,27.08.5.55h.82l.88-.27.22-.55-.22-.44-.27,0,.16.22.33.17-.27.27-.55-.49-.55.11-.39-.28-.49,0Zm.22-21,.5-.17-.28.39ZM199.7,32l-.38.11.05-.28Zm-.33-20.1.5-.16.11-.33h-.44Zm.33,27.75-.11-.55.28.06.6.33.5.05-.55.17Zm.28-21,.27.22-.22.22-.22-.28ZM200,37.33l-.22.33.33-.06.22-.49-.27-.28V36.5l-.28.06.06.33Zm.11-1.27.06-.27-.22-.17-.06.22Zm0-23.39.28-.06.33-.16.33-.28.22-.11h.17l-.06-.17h-.28l-.22.17-.27.27-.5.12Zm.5,21.63-.22-.16.05-.5.39.06.33.16-.33.22Zm.05,3.69-.27.17.27.33.5-.28.05-.16-.11.05Zm4.24,5.4-.38-.33-.66.16-.22,0,.11.1-.83.17-1.15.11-.45.11H201l-.55.22v.44l.61-.6.16.33-.27.27.16.17.56-.33.16-.61.33.22.55.33-.33.33-.27-.33-.39.44.77.33.72-.33.22.17h.16l-.33-.22.22-.22h.39l.11,0-.06-.16-.44-.06-.27.39-.06-.66.55-.5.55.39ZM200.58,18.5l.72-.44-.06.22ZM201,37.38h-.27l.05.22.28-.05Zm.17-2,.05.28-.33-.11.06-.5Zm.22-16.07-.06.27-.22-.11Zm.28-6.11.55-.06-.28-.33-.49.06Zm0,5.39.66-.27-.06.71-.33-.11.06-.16-.28,0-.22-.11Zm-.12-4.79v.11l.12-.16Zm.45,24-.28,0,.11.23.44-.06Zm-.12-25.49.28.33.11-.33-.22-.11ZM202.46,37H202l-.12.27h.34Zm.27-18.22L203,19l-.44.05Zm0-5,.06.33.55.06.11-.33.05-.39.28.22H204l-.06-.16-.33-.33-.27,0-.06.28Zm1.05,28.24-.5-.11-.16.28-.39.6.33.23.66-.56.66.06.06-.39Zm.16-22.24-.05.11-.11.11-.22.06-.11-.28.27-.16Zm.06,9.47-.39-.05.06-.44h.44Zm.05-14-.16-.22.55-.38.49.27.61.5-.55.33-.5-.06ZM204,41.68l.05-.17-.16.17v.16Zm.44-24.89-.33-.05-.06-.33.5.05Zm-.17,13.49-.05-.27.16.11.11.22ZM204.71,41l.39-.22-.17-.55-.38.11.22.44-.17.16-.38-.16.22.27.16.28Zm-.16-24,.33-.22v.38l-.22.28-.22.11Zm2,24.11-.33-.38-.27.05-.55.22-.61.66-.16-.27-.06,0-.16.11.16.44.72.11.38-.71.55.16Zm-1-9.19L205,32l.27-.33.77-.11Zm-.33,11,0-.27-.17-.06v.22Zm3-7.1-.5-.22V35.4l-.27.17-.11.27-.44.06-.5-.39.44-.11-.88-.88-.28-.38-.27,1,.55.6-.33.22-.22-.11.16.22.06.17.11.22.05.27-.22.44-.22.39.06.5.44-.23.44-.11-.22.61-.22.17-.33.49-.33.17v.22l0,.27.17.22.33-.27-.11-.11.11-.33-.22-.17.38-.11.56-.27.44-.78h.71l.28-.44-.11-.49Zm-2.59-5.67-.33-.05.16-.17Zm-.28,9.09.17-.28.11.28-.11.27Zm.61-21-.22-.11.38-.05.22.22ZM206,36.39l.22.11V37l-.33-.06.06-.27-.17-.22Zm1.22,3.75-.56-.33.23-.61h-.39l-.44.66.16.55h.67l.22,0ZM207,36.78l-.44-.17-.22-.16.39-.17.44.22Zm.28.55.11.05-.33.17-.11-.11Zm.39,1.27v-.06l-.17.22-.33.06H207l.06.16-.06.11h.45l-.11-.11.16-.22Zm-.11-.22,0,.11,0-.22-.22-.11Z"/><path d="M239.12,15.14l.11,1.16-.55,1.1-1.27.5-3-.06-1,.11-1.1-.05-.93.05-1.21.5-.44,1,.11,1.21-.17,1.1.22,11L229.71,35l.11,1-.11,3.36-.17,1.15.17.94,0,2.2-.11,1.27.06,1-.44,1.1-1.11.44h-3.41l-1,.11-1.11-.11-1,.11-1.16-.55L220,45.92l-.05-4.3.11-1.1-.17-3.36.06-1.15-.06-1.1.22-1.65-.16-1.6v-2.2l.11-1.1-.11-1.05.16-1.71-.16-6.05-.55-1.05-1-.6-4.89-.06L212,18l-1.1-.56-.6-1.21,0-5.5.55-1.1,1.21-.55,16.41.11L229.82,9h1.1l1.1.11h1.1L234.33,9h1l.88.11L237.58,9l1.1.55.55,1.1ZM214.73,16.9l.77-.44-.38-.22.33-.38h-.33v.22l-.28.11-.33-.22-.38-.11L213.8,15l-.56-.06-.33-.44-.44-.38-.38.05.16-.11-.27-.11-.61-.38-.22.27.11.28-.11.22-.22.33.28.33.11.27-.22.33.38.39.66-.17-.11-.44-.22-.11.44-.16.39.33.16.11.34.16-.12.55-.16.33.66.17.83-.06.55.44.33.06.05-.17-.22-.05-.22.11ZM211.1,12l.05.89.28-.06.33.5.55.11.22-.17h.27l.22.55.06-.27-.17-.17.17-.27.55-.11-.06-.44-.33-.5.33,0,.28-.22.11.17.11-.22.33-.11.11-.17-.11-.22-.27-.27v-.28l.27-.33-.6-.6-.72-.11-.83.16-.55.39-.33.33Zm.49,2.92-.38.06-.06-.28.06-.22.55.06.11.33Zm.11-4.4V10.3l.39.11L212,11l-.33,0Zm.72,6.11-.44-.06.11.33h.22Zm.33-1.65.22.16-.11.28-.11-.11Zm.88-3.09-.11-.27v-.44l.22.33Zm21.69,1.88-.16-.5-1.1-.33L233,12.83l-11,.11-1.1-.11-5.51.11-1.1.22,0,.55,1.76.44,6.6-.11,1.05.66.39,1.1.16,1.05.11,2.26-.11,2.2.17,1.1-.23,1.16.12,1.15-.17,1.05.22,2.31-.17,2.09.06,1.27-.11,1,.11,3.31-.11,1.15.17,1.22-.06,1,.11,1.1-.11,1.1.06,1.32.27.94.66.06.28-1.71-.11-3.85.11-1.16-.11-3.36.11-1.1-.11-1.16.11-1.1-.06-3.36-.16-1.15.16-1V21.25l-.11-1,.17-1.15V15.75l.44-1.16L227,14l7,.11Zm-21-4h.22l.16-.06.11.44-.16,1,.6.33.28.61.77,0,.27-.11.39.22.93-.22.5-.93-.39-.72-.27-.11v-.05h-.11l-.33-.11-.22.16-.22.28.22.16-.5,0-.55-.72-.82-.33-.5.11h-.16Zm1.26,1.76-.27-.11.38-.39.55.17h-.33Zm7.87,14.86L223,26l.38-.55-.49-.72-.39-.82.22-.5.28.17-.17.49.28.44.16-.44v-.55l-.27-.27-.22.05-.28-.44-.38-.44.49-.39.39-.16v-.94l.11-.27.16-.5-.71-.71-.17-.5.44.28.11.49h.17l.11-.33,0-.66-.71-.16-.72.05.17-.33.27-.16.17-.33v-.67l.16.39.39.61.27.22.11-.11-.27-.33-.17-.5-.49-.77.22-.28L223,16l.06-.44-.17.39-.27.38-.17-.33-.6-.22-.17-.33V15.2l-.49-.11h-.33l.16.6h.44l-.16.11v.55l-.5-.22-.16.33.49.44.28.5.05.33-.16.11-.17-.16-.22-.5-.6-.5-.88-.6.11-.66-.44-.22-.28.49-.44.44.06-.49-.23-.33-.33.22-.38.16-.33-.33-.5.5-.6-.39-.11.72.66.55.66.11.55.27.16-.22.33-.16.23.11.1.38.56.17h.22l.27-.11.11-.22.11.55.61.77-.55.17v-.28l-.17.11.17.28.33.22.16.33.28-.06.33-.27.22-.06-.06.33-.27.39v.33l.16-.17.39-.33.16-.22.44.55-.44.33-.16.33-.33.17-.33.27-.06.39.06.27.16.33-.49.72.38.5-.11.44.39.16-.06-.27-.22-.44.22-.56.39.33.38.28-.38.44.33.17.33-.11-.06.38,0,.5-.06-.22h-.33l-.22.38-.27.06-.28-.11.28-.17-.17-.38-.38.33.44.44v.38l-.22.39-.17.44.06.38L221,26v-.33l.39.5-.22.77-.17.22.17-.11.22-.17.16.22-.22.17-.27.33.05.77L221,29l-.06.22.5-.55.16.55-.11.38.55-.16.06.71.27-.16.5-.61.11-.6-.55-.39-.88-.22-.39-.5.55-.11.5-.27-.11-.39.33-.27.66-.28Zm-6-16.13.22-.05,0,.05h.06l.05.33-.16.06-.11.38.55-.11-.33.39-.33-.06-.44.28-.17-.44.39-.44Zm1.65,6.44-.49.17.38-.33.5.11Zm-.22-5.83v.49l-.17-.16.34.6.49.11.28-.05h.33l.44.38.44-.05-.33-.22-.33-.17-.06-.49.39.16.16-.11.17-.44v-.33l-.5.22-.27-.38-.39-.17L220,10l-.16.22v.39l-.22.16-.11-.38-.39-.5-.27.33Zm.88.88-.38-.5.22-.27.33.44Zm.33,3.85.44-.22-.38-.44-.39.39Zm3.25,16-.5-.33-.6-.61-.22-.05v.49l.11.5-.22-.22-.17-.22.11.27-.27.06-.39-.11-.11.16.5.11.44.17-.28.16-.22.44h.44l.22-.6.55-.17v.55l.39-.22Zm-1.87,2.64.27,0-.11-.17-.44.22Zm-.17,7.27.17.38.11.11v-.33l-.22-.22.22-.11v-.22h-.28l-.05.22ZM221.5,30v-.27l-.22.22Zm-.11-18.28.28.22-.11.11.27-.11.17-.11-.22.06-.39-.17.28-.27.55-.33-.22-.28-.11.22-.44.06Zm.94,10-.44.28-.39-.28.5-.27Zm-.44,22-.33-.17v.22l.33.17Zm-.06-19.38h.55l-.49.71Zm.11,2,.33.27-.33.22Zm.17,10.35h.27l-.11-.28-.33,0ZM222.33,21l-.17-.39.44-.38.28.16-.06.33Zm.22,4.62.22.17-.22.22-.28-.06-.11-.22Zm0,13.33-.22-.28-.17-.11.06.39Zm.16-3.47-.44-.28v.5l.28.27Zm0,2.59-.05-.34-.28.11.17.34Zm-.22-26.6.22.39.61-.06.28.17v-.06l-.34-.6-.55-.28.28-.27.33.11-.11-.28-.66.28Zm.22,10.85-.16.05.22.23.22-.17Zm2,22.79-.33-.16-.23-.17-.38.28.33.44.11-.17h.39Zm-.39-34.79.17.27.22.06v-.06l-.17-.27Zm.5,1.76.27,0,.22-.38-.38-.28-.11.33Zm.27-1.21.55.11-.11-.61-.44.11Zm1,35.51-.27-.28-.06-.27.22-.33-.05-.44-.22.22-.06.33-.22.27.33.28.06.33Zm0-35,.38.55.44.11.11-.66.55,0,.55.28h.44l-.11-.33,0-.22-.17-.61-.77-.6-.33.33-.22,0,.44.06.55.49.17.55-.39,0-.27-.5-.66.22,0,.61-.33-.44Zm0,12.5.44-.06.22.55.33.06v-.66l.33-.72v-.39l-.28.45-.44.38-.38-.11-.06.28Zm5.56-8.59h-.39l-.16.38-.44.5-.55,0-.61-.16-.44.05-.17-.16-.22-.77-.6-.06-.17.33-.49-.05-.33.49.11.44h-.28l-.49,1,.27,1.37.28.33-.39.33-.22-.05-.16.82.55.77-.5.61-.05.66.27-.11.39-.11.11.22.16-.22-.22-.11-.05-.44.6-.17.5-.44.22-.11.49.22.17-.38-.22-.06.27-.6.28-.5-.22-.05v-.39l.11-.49.39-.17.11-.22-.17-.22h.39l.49-.22v-.33l-.33-.11-.55-.17-.38-.49.27-.17.39.39.66.22.44-.44.44-.33L231,15.8l.27-.22Zm-5.12,27-.33.28.27.33Zm.16-19.65-.44-.05.17.38-.11.33v.06l.27-.22Zm2.32,5.73-.28-.89-.17-.71-.38-.17-.33.17-.33-.88-.11-.94-.17-.22,0,.17-.39.77-.27.33.22.49.16.55.28.28.16.38-.16.56h-.22v-.39l-.17-.17-.27-.05v.66l.44.44v.44l-.28.17-.22-.06-.22.11.22.28.17.16.55-.16.27-.33.17.66v.71l.27.44.5.17.33-.33-.28-.61-.22.17.17.44-.06.22-.38-.28-.22-.22.27-.27.06-.83.49-.27-.44-.39-.49.39-.44-.22.44-.5-.28-.49.39.11.49-.61-.33-.44.28-.11.22-.17,0,.39.06.77.33.28-.17.27-.11.22.23.22.05-.27Zm-1.77,8,0-.28L227,35.9l-.11-.17-.49.22.22-.05.22.44Zm-.55,3.58.28-.39.22-.05-.11-.17-.28.22-.16.22-.22-.22.22.39-.22.22ZM228.94,34l-.78-.33-.38-.11.22-.39-.17-.11-.6.22-.55-.22.11-.49-.33.21.16,1,.83.06-.11.22.11.49-.17-.11-.33-.11.11.28.33.22.5-.11.16-.39.28.39.49-.22Zm-2.15-14.48.33.05v.33l-.5-.05Zm-.06,11.78.11-.17-.22.17.11.16.17.28.33-.17-.28.11-.11-.27Zm.22-.88.28-.06-.11-.11-.28-.05Zm.22,15-.33.11.28.33Zm0-7.43-.17.33.44-.39-.16-.55-.28.11Zm1.65,3.14-.28-.5-.38.06h-.28l-.05.33.44.22-.22.22-.72.27-.27.72.71-.33v.55l-.16.22.22-.06.16-.22.39-.49-.22-.66.27-.22Zm-1.38-14.54.28.28-.17.22-.11.22-.11-.17-.16-.38Zm.17-10.18h-.28l.22-.28.22-.16.17.27Zm.88,2.53.11.83-.22-.28-.94-.55.11-.38.72-.28Zm-.77,19.33-.11.38.38.11-.05-.49Zm1.21-13.49-.61-.17-.33-.33-.27-.05-.06.49.28.5.6-.33Zm-1.1,7.15V31.6l-.17.22.06.22.22.33h.33l-.11-.22h.22l.27.28,0-.39-.28-.27-.22.38Zm1.1-8.25h.22l-.33-.28-.11-.82.22-.34v-.33l-.16.17-.23.16h-.44l-.38-.11.27.33.17.45.27.44-.11.16-.16.11-.17-.22-.16.11.11.22.44-.11v.22l.27.22.06-.22.28.06Zm-.83-1.88.39-.22-.06-.38h-.49l-.06.27Zm0,14.15-.22-.22v.5Zm.83,3.09h-.22l-.5-.17-.33.44.33.17.44-.17.28-.11Zm-.44,5.06-.06-.38-.27.05.11.39Zm.05-18.55-.11.22-.16.16.27.11.17-.6-.22-.33ZM228.33,33l-.11.11.27,0Zm.22,5.34-.11-.27-.17.38Zm.11-21.14H229l-.05.66-.61-.44,0-.83.39.33-.17.39.06.16Zm-.28-6.66.28-.11.22.44.06.38.38.44.39.17.22-.39.27-.49.17-.17-.33,0-.22.22-.28-.11-.38-.22.27-.22.33-.28-.82-.11-.34.22Zm.56,26.92-.06-.39-.11-.16-.33.16.16.44Zm.6-21.91.22-.39-.38.06Zm.66-.06.33.22v-.33l-.38-.11Zm.39-4.68.11.5.38-.11.22.11.28-.22.55-.17.05-.49-.16-.28-.11.44-.55.06.22-.5-.11-.22Zm1.81,6.06-.38-.5-.61-.05.33.49Zm0-1.6-.33-.16,0,.49.38.11Zm-.11-4,.22.28.28.16-.11-.49Zm1.88,5.23-.44-.33-.34-.6-.55-.39-.11.28,0,.22.22.33-.06-.28.33.06v.66l.39.38.33-.05Zm-1.38-6.05.22-.11.27-.33-.16.11-.28.11Zm1.49.66.22.11-.06-.5Zm1.1,4.46h.33l-.33-.17-.44,0-.11.44-.44.38.16.61.17-.11.33-.61Zm-.77-5.34-.11.27.22-.11.49-.16L235.1,10Zm.82,1.7.06.28.22-.17-.17-.27Zm.39,3.69-.28.39v.22l.17-.17Zm.71-3.63-.22-.17-.05.17.05.33H236l.06.33.33-.22,0-.28Zm1.1,1.05-.33-.17-.27-.44-.39.11.11.28.5.44Zm-.88-1.6.28.11.27.44.39.22-.22-.33v-.33l.38-.33-.16-.55h-.33l.22.22.11.22-.28.38-.16.06-.06-.28-.33-.05Zm1.38,4.35-.11-.22-.28-.06-.11.33.22.06.11-.28Zm-.11-2.7.38.17-.16-.22Zm.44,1.38-.22.05-.11-.11.11.22Z"/><path d="M280.35,25.71l.17,2.76-.22,1.59-.06,1.16-.27,1.1-.06,1-.44,2.09-.82,2.09-2.42,3.69-.78.77-.71,1-1.54,1.33-1.05.49-.82.66-1.82,1-4.13,1.38-3.3.44-3.09.05-1.15-.1-2-.45-1.22-.11-1.59-.55-4.3-2.2-1.81-1.43-.61-.72-.82-.77-.72-.88-.66-.66-2.53-5-.5-2.09L241,32.26l-.27-1-.17-1.15.17-4.46.93-4.24.83-2.09,1.7-2.92,2.7-3.14,1.87-1.38,1-.49.83-.61,4.13-1.54,5.84-.82,1.48.05,3.2.55,4.23,1.32.83.61,1.65.71,1.27.89,1.59,1.37,1.55,1.71,1.21,1.65,1,2L280,23.46ZM242.7,28.3l-.72.17.22.27.44-.22Zm.11-1.87.44-.06.22-.44-.39.28Zm.49,7.21.39-.33-.5.11-.38.17.11.11Zm-.33-9,.11.11.33.44.22-.5-.22-.16Zm1.55,10.9.21-.22-.21-.72-.5-.44-.55.06.05.27Zm-.72-12,0,.27v.28l.22-.11-.11-.28.06-.16-.06-.22ZM245.73,38l-.17-.17-.33-.82,0,.49.27.39-.16,0-.77.28-.39.55.66-.22.5-.55Zm29.17-3.36.22-1.15.44-1.16.17-1.05.16-2.91-.27-4-1.05-3.25-.49-.82-.77-1-.55-1-1.6-1.6-2.64-1.92-4.13-1.65L263.18,13l-1.05-.22-1.49-.06-2.69.22-2.42.55-.94.33L250.68,16l-.71.72-1.05.82-1.21,1.6-1.27,2.09-.44,1-.33,1.22-.11,1-.5,2.31v3.36l.23,1,.11,1.16.22,1,1.48,3.24,1.1,1.71.88,1,.61.83,1.87,1.32,1.16.55.82.49,2.15.83,1.93.5,3.08.27,1.38-.16,1.1-.11,2.26-.44,1.1-.33,2.09-.94.93-.55.88-.72,2.32-2.31ZM245.4,18l.55-.05.05-.61h-.6Zm.49,22.74-.16-.22-.17.27Zm.44-.5L246,40l-.22.38h.33Zm28.24-14.64.22,4.51-.16,1.16-.44,1.1-.17,1-1.1,2.86-.66.93-3,3.14-3,1.54-.89.28-3.24.66-1.54.11L259,42.78l-2.09-.28-2.26-.77-1-.49-.72-.44-1-.5-1.49-1.37-1.49-1.71-.49-.83-.5-1.1-.71-.93-.28-1.1-.16-1-.39-1.05-.05-4.4.66-3.14.77-2.15.44-.88,2-2.75,2.64-2,4-1.54,3.69-.28,1.59.06,2,.38,3.08.94,1.05.6,2.48,1.88.71.71,1.82,2.92.27.93.5,1ZM247,41.13l.61.16-.61-.55-.66.33Zm.33-11.56.39.33-.06.16.44-.16.33.11.33.49L249,30l-.17-.44-.6-.22-.83-.49-.22-.39-.22.39Zm.39-2.37-.22.27-.28-.16.22.44.33.39,1.1-.5.55-.61-.55-.05v-.11l-.16-.17-.06-.55h-.38l.11.66-.33-.38-.55-.17-.22.55Zm-.22,3.14.11-.17-.17.06Zm.33,12.38-.11-.33-.28-.44.17.44ZM247.49,24l.27.16.33-.16.11-.11-.22-.06-.22.17Zm.55,6.77-.11-.28h-.33l-.11-.05,0,.11.28.27Zm.22-6.06-.22,0-.28.22.06.38.27.39.17-.66.33-.06Zm.66,11.07.88-.33.55-.39.44-.6.28-.17-.55-.66-.06-1-.66-.44.11.27.44.33-.71.72-.23-1.05-.38-1.1-.77.39-.39.33.06.5.33,0,.27-.55.33.16.06.67-.17,0-.22-.17v.28l.17.28-.11.11H248l.28.38-.06.94.55.49Zm-.44-8.48-.55-.22.55.05.49.17-.16.16Zm.93.55-.55.44-.49.28.16.27.5-.38.16-.28.22.22.33-.16Zm-.82-3.63h.22l.22-.39-.28.11Zm1.32,10-.17.5-.66-.44-.44-.55.28-.06.77.33Zm-.83-10.35H249l.27.17-.33.49.22.28.45-.17v-1l-.17-.6-.39.33Zm.11,18.22.33-.16.33.05-.6-.27-.22.38Zm.66,1.38-.11.61.33.05.12-.66-.55-.38-.56-.06.11.22Zm.06-6.88-.17.22-.05.38.22-.33Zm.61,8.31-.22-.33-.23-.22-.16.28.39,0ZM250.13,14l.28.28.49-.44.55-.06,0-.16-.77-.11Zm1.49,22.24-.44-.33-.77.66-.22.94Zm-1-1.15-.17.38.06.17,0-.17.22-.11.22-.27Zm0-14.7.27.27v.17l.17-.06.11-.16.38-.28-.49-.55Zm1,3.3-.44,1-.16,1.05-.28,1v3.36l.44,2,.5,1L252,34l.77,1,.72.77L255,37.05l.88.5,2,.83,1.21.16h3l1.1-.22.82-.39,1-.27,2.65-1.82.77-.88.33-.82.6-1,.39-1,.44-2,.11-3.36-.17-1-.49-1.05L269,22.63l-2.15-2.26-1.71-1.21-1-.44-1-.22-2.64-.33-1.54.11-2.15.55-.71.28L253.32,21,252,22.74Zm-.77,19.88.44-.39.28.39,0-.22-.33-.28-.27.06-.28.16Zm.39-5.73.27.22.17-.17-.33-.22-.17-.22-.27.06.11.27Zm-.06-25.77.22.67.55-.22-.11.22.22.33.22-.44-.71-.72-.17.27Zm2.37,32.82-.06-.11-.77,0-.88-.22-.33.17-.27.27.44.22,1.21.06Zm1.54-4.63.44-.44v-.44L255,39.2v-.38l-.28.11-.71-.61-.55-1-.44-.44-.17.33-.44-.11-.11-.33.11-.33H252v.55l.93.66-.27.45h-.39l.11-.23-.44.56-.49.16v.28h.93l-.16.44.38.44.5.44.82.38.39.39Zm-3.36-22.24.06.06.49.05.39-.22-.5-.27Zm.83,26.1.27-.39-.27-.33-.11-.22v.17l-.17.38Zm.38-5.34.33.11-.38.33-.28.05Zm4,6.66-.33-.55-.28.33-.38.11-.06.27-.44,0v-.33l-.22-.33H255l-.39-.39.06-.16-.5.16-.33-.27.17-.17.05-.33-.38.5v.27l.6.39.55.49v.83l.23-.28-.11-.38.44.27.77-.33.44.06ZM254.15,17l.11.55.49-.11.56-.55.33-.22-.33-.16-.72-.22-.39.55Zm.66-6.22L255,11l.28.06-.12-.28Zm.61,35.57-.23.11-.21.27h.33ZM270.5,38v-.33l-.44.39-.28-.06v-.55l-.38-.83.22-.49-.28.11-.49.6-.55.22-.77-.11-.11.44-.83.22L266,38l-.55.5-.22-.17-.88.44-.39.77-.27.17-.66,0-.28.17.11-.55-.16-.22-.66.38-.72-.22-1.93.11-.71-.11-.55.06-.22.44-.44-.11-.39-.39-.05.55.33.33h.44l.11-.33.27.61-.44.16-.71-.49-1,.27-.66.28.49.33.94.16.77.22.71-.16.44.16v.28l-.71.11-.11-.33-.22.22.77.33h.6l.72-.11,1-.22.11.44.66-.22.06-.66.27-.11.22.55.94.27.82-.11.66-.44.55-.22.56-.27-.06-.77.22-.28.06.17.49.77.83-.72.55.06.05-.61h.61l.49-.82.5-.11.33-.39,0-.16.22.16h.23ZM255.91,11.23l.33.33.33-.27-.33-.33Zm.22,5.45.11.11.11.06.06.22-.11.11h.22l.16.22.17-.11L257,17l-.22-.22-.22.17-.17-.11-.05-.17Zm.06-1.21.22.17h.77l-.11.44v.44l.38.49.06-.49.22-.66.44.44.33.05-.17-.27-.16-.33.6-.11.28.38-.11.44-.5.39-.38.11v.27l.16-.16h.39l.44-.22.16-.33.22-.22-.05-.44-.44-.66-.94.38-1.1-.33Zm1.65,31.44.44.05.05-.38-.33.05-.27.17-.06.11Zm4.84-1.16-.49-.71-.39.05-.6.44-.66-.11-.67-.33-.66.06-.16.27-.88-.11.05.39.72.49.49.11.5.28.22-.11.11-.39.17-.16.16.11,0-.17.77.22v.55l-.61-.11-.22.33.44.39.55-.22.5.11.55-.11.05-.44Zm-3.52,1.49-.11-.39h-.44l-.17.11h.17l.22.33Zm.16-7.49.5.11v.5l-.5-.22Zm.11-24.17.33.06.5-.39.11.22.06.22.11.11.16-.16-.27-.28-.06-.44-.22.17-.17.27-.38,0Zm1.77.77-1-.22-.17.39.22.22.66.05.77.33.77-.27.39-.11-.11-.77-.66-.11v.49Zm.93,28.8.17.22.05.22-.44,0,.06-.27Zm.55-5.18.06.39-.5.22-.27-.44.49-.22Zm2.7,6.77-.16-1-.89-.6-.66-.28-.55.28.06.27-.17.39.55,1,.28.05.93.33Zm-1.82-35.23.5.38.11-.38-.06-.11-.33.22Zm.22-1,.44.22.44.33.17,0-.06-.22-.49-.11-.22-.39L264,10Zm.22,5.67.33.33.39-.27-.28-.22Zm.33,29.4.33.17-.38.22-.17-.11Zm.22-4.9.28.17-.28.33h-.38Zm.83-1.21.44.44-.83-.22Zm-.33-22.74.5-.22.44.11.05-.27-.55-.55-.44.27Zm2,27.92-.55-.11-.11.77-.6-.55-.45-.06-.16.39,1,.6.61-.27ZM265.27,11h.5l.71.11-.05-.66-.61.11Zm0,.61.5.33.49-.17-.11-.16-.33-.11Zm1.49,5-.28.22-.49.06-.22.44.44.22.55-.28.27.67v.49l-.16.22h.49l.17-.55h.38l.06.17.33-.44-.06-.67-.33-.11-.38.5-.17-.55v-.22l-.38.11-.17-.28-.05-.22-.11-.11Zm.05-5,.28.44-.22.5.55.22.27-.27-.27-.45.27-.66.33-.22-.16.39v.66l.49.55-.05-.88.77-.55-.17-.44-.49-.06-.77,0-.28-.22-.22-.06.22.66-.11.72-.22-.28Zm1.1,34.52-.27-.49-.44-.28-.11.22.38.44Zm-.11-1.65-.05.55.38-.11.66-.33-.05-.55-.88-.16-.55.22Zm.28-25-.33.22.38.22.28-.22Zm.27-6.66-.33.33.28.44.33-.16-.28-.22Zm.11,32.65.11-.06h-.05l-.44.11.22.06Zm.77-8,.55.66-.82.06-.72-.34.61-.05Zm-.77-1.21,0,.49.38,0v-.5Zm0-17.23.22.33.17.27.33.17.55.22v.82l.38-.22-.11-.71.33-.11-.05-.33-.39-.06v-.6l-.33.66h-.44l-.27-.28-.17-.33Zm.39-.5.33.11.16.17v-.22l.28-.33-.11-.33h-.33l-.33.22Zm3.25,25.22-.55.11-.17-.66-.05-.94-.77-.06-.56.44-.33,1.22.22.55-.88.22-.05.77.33-.11.77.27.5-.6-.12-.61-.33-.16.06-.44h.16l.39.27.39-.33.22.33.49.11ZM269.84,35l-.33.11-.5.39.22.27.66-.33Zm.72-13.6-.28.39-1.1-.28.44.39.38.38.78-.22v-.16l.11-.66Zm-.89-7.48.39.38.38-.33-.11-.33-.1-.16.38-.44v-.67l-.44-.05-.22.44.16.22v.17l-.16.33Zm1.71,21.19-.22-.82-.44.11-.39.6Zm-.49,1.38L271,36l-.56-.11v.44l-.05.33.11-.06.33.72-.22.22.22-.06.17-.27-.06-.33Zm.33-16.3.11.28-.28.49.5.33.44.17.22.44-.33.38-.55.34-.5-.23-.33.06.28.17-.22,1,.49.16.17-.6.49-.33v.49l.33.11.28.06.22-.5-.06-.66-.16-.44.22-.33-.44-.33-.33-.61Zm-.72,22.46.55.22-.27.34-.06-.34Zm.44-22.18.06-.17.05-.05-.11.05ZM271,33.37l.16-.23.11-.6-.33.5Zm.05-20.7.17.77.44.88-.55.11.11.27.88-.33.66-.88-.33-.44-.33.06ZM273.64,31l-.33-.17-.5,0-.82-.22-.94.55.39.55.05.6.88.11v.89L272,33l-.49.11.22.61.27.55-.22.27h-.11L272,35l.27.22-.16.39.49-.17-.44-1.15.22-.5.28-.11-.06-.22.28-.11-.11-.5.33-.21L273,32l.16-.38.17.22.05-.11-.22-.11-.66.27-.11-.33.5-.44.38-.22.28.33Zm-2.48-1.6.17.28.44-.22h.55v-.33l-.5-.22-.44.05Zm.44-4.51-.38.22v.49l.38-.22Zm-.05,3.69h.22l.27-.28-.38-.11Zm.6-15.42.28-.11.11.33-.17.33-.38.06-.22-.33Zm1.82,14-.33-.44.22-.22v-.27l-.22.05-.94-.05-.49,1-.11.49.49.17.66-.66Zm-1.82-12.27.06.49h.38l.06-.49Zm1.38,27-.06-.22L273,42l-.11-.66-.44.11-.17-.11-.05,1.05.33.27.6-.33Zm-.83-16.79.22-.06.44-.38.17-.06-.22-.16-.55.44Zm.17-10.63.49.39.06-.33.38-.33-.49-.33Zm1,14.65-.05-1-.33-.06-.5.39.06.77-.22.55.38-.06.39.17Zm0-12.34v-.88l-.66-.22H273V16l.06.11.55.33.27.49.06.28.33.11-.11-.28Zm0,23,.17-.33h-.33l-.17.44Zm.22.82-.27.06.05.38.22,0ZM274,15l.38.61.44.16-.22-.27-.11-.44-.16-.33Zm.82,1.93.66.83-.27.66-.28-.06-.16.11.16.11.22-.05h.67l-.34.33-.16.49.66.11.17.06-.33.66-.61-.28-.17-.16.11.22.39.6.55.33.33.11v-.22l-.33-.6.17-.39.11-.27-.33-.28.27-.27.11-.39-.27-.38.11-.11-.39-.67-.11-1-.5.16Zm.28,20.53.11.11.22-.16.33-.28v-.22h-.38l-.12.39Zm.88.78-.33,0-.11.44-.28.11-.05.28.33.05.33-.11v-.22l-.22-.11.22-.16Zm.66-3.64-.66.83.44-.39Zm2.92-11-.66-.77-.39-.17L278,23l-.28-.61h-.88l-.38-.22-.11-.22v.27l.77,1.16.38.11.33.17-.38.11-.33.82.49,1-.6.22-.17.22.88.17.22-1.05-.11-1.48-.05-.28.49.11.44.28-.44.49.28.17.22.38-.5.55.11.33.28-.22.55-.55Zm-2.75-2.92.05.33.28-.06.11.72h1v-.88l-.39-.22-.33.49-.38-.38Zm.33-1.38.05.22.22.39.44-.06-.11-.55Zm.38,13.55-.27.33.16.44.28.44v-.77Zm-.11-5.51.17.27.22.39.05.44.39-.22-.28-.72-.27-.11Zm.28-.55.22-.06-.22,0-.22-.22v.16Zm.11,4.18.38.22.06-.38-.39-.28Zm.82,3.14-.16-.38H278v.55Zm-.33-11.28.22-.17.06.44H278Zm.88,4.84-.11-.61-.44-.16.33-.17-.11-.49-.38.33.05.44.28.27.22.39Zm2.76,2-.06.16-.16.28Z"/><path d="M319.06,46.08l-.23,1.16-1.15.27-1.21.11h-2.2l-1.11-.11-1.21.11-2-.11-1.38-.33-1.1-1-.66-.88-.49-.93-.72-1.05-1.54-2.75-.39-1-1.43-1.93-.88-.93L300,36.23l-1,.05h-1l-1.1.55-.49,1.1.11,3.42-.17,2.37.22,1.15L296.48,46l-.38,1-1.71.55h-1.65l-1.16-.11-2.25.17-1.05-.06-1.1-.55-.39-1.21-.16-4.29.11-1.16-.22-3.19.16-2.26-.16-1.21.05-2.09.11-1.16V27.75l-.16-1.6.16-15.41.44-1.16,1.05-.49,1.21.05L290.43,9l2.25.22L293.73,9l3.3.11L298,9l1.21.11,1.1-.11,1.21.06,1.6-.06,1.38.11,4.56.94,1.93,1,2.75,2.09.5.83.77.82,1.49,3,.27,1.1.17,1,.27,1-.05,4.35-.61,2.09-.38.94-.61,1-.38,1.05-.67.93-1.54,1.49-.6,1.16.16,1.32,1.65,2.86.72.88.55,1,.66,1,.5.94,1.76,2.7Zm-31.61-22,.06.28.22.22-.17-.28Zm.33,5.84h-.16l-.11.22h.27Zm.45,1-.12-.11H288l.05.11Zm.21-6-.05-.28-.22-.05v.27Zm.5,14.48-.11-.17-.16-.11.05.11Zm.77,3.57-.16-.22h-.22l.16.22Zm20.81-.88.44.88,1.05.94.71-.05-.27-.94L311.29,41l-.44-.93-4.13-6.5-.16-1.21.82-.77.88-.44.94-.72.83-.66.66-.71L312,27.31l.39-1.1.49-.88.17-1,.05-1.6L312.83,20l-.44-1.16L310.47,16l-.77-.71L307.93,14l-1.1-.44-2-.49-3.42-.22-1.1.11-2.37-.17-5.34.17-1,.49-.71,1,.16,1.32-.16,1,.11,2.21-.17,1,.11,1.1-.11,1.21.06,1.16L290.81,27,291,28l-.17,1.1.11,11.4-.16,1,.33,2.15.66.11.33-1.16.05-1.15-.16-1,.16-1v-1.1l-.11-1,.22-1L292,34l.66-1.1.93-.61,4.13.11,1-.11,1.54.11H303l1.49.27,1,.94.6,1,.61.82Zm-3.58-11.67-2.2.66-10.51.11-1.71-.38-.44-1.1.16-3.2-.11-1.21v-1l-.05-1.1.11-.94L292,21.14,292,20l.17-1L292,15.75l.72-1.05.94-.55,1.26.06,2.64-.17,7.27.22,1.1.28,1,.49,2,1.16L311,18.83l.49,1.05.22,1-.05,3.36-.22,1.27-.44,1-1.49,1.88-.77.77-.94.55Zm-12.66,6.22.28-.44-.06-.38-.22.11.06.33-.06.33Zm.39-8.8-.22.33-.06.16.17-.11.11-.22Zm.05,17.28-.16.11-.11.22.27-.05Zm.33-28.57-.27.05.05.17h.22Zm.5-5.07.22.06.05-.28ZM306.12,26.1l.6-.94.44-1.1.17-1.48-.11-1.6-.39-.88-.55-.83-1.7-1L302,17.9l-3-.06-.89.06-1.1.55-.66,1.1.17,6.16.55,1.16.93.49h1.22l1.1.17,4.29-.39.83-.38Zm-9.64-10.41.22,0v-.22h-.16Zm.5,18.72-.11,0-.11.22.22.05Zm.33-23.67.16,0,.22,0-.05-.17.05-.11-.22.11Zm1.54,4.84,0,.28h.28l-.05-.39Zm.72.72h.16l-.05-.17-.11-.05Zm.22-5.34.77-.22.16.16-.11-.38-.49.22-.33-.06Zm.77,4.51.16.39.44-.17v-.27l.11-.11-.16,0-.22,0-.17-.11Zm1.32-.44-.61.88.11.44-.38-.11-.22.17v.22l.05-.22.17-.17.33.28.44-.55.22-.5.38-.22Zm.27-4.18.11.22.17-.06-.11-.16Zm.39,17.89h-.28V29h.28Zm0-12.72-.22.06.05.22h.22Zm.88,19.22-.55.16-.22.22.27.17.5-.28Zm-.33-19.82.27.16-.05-.16.05-.11Zm.33-5.51h.27V9.64l-.21-.06Zm.49,1.32.06.33.44-.11-.27-.22Zm.39-.71.11.22.11,0,0-.22Zm.33,5.12-.22.27.22.11.11-.33.22-.16-.11-.39-.27.22ZM304.85,36l-.16-.11-.11.17.11.05Zm-.16-24.17h.38l.28-.33-.55-.11Zm.22,5,0,.44.11.12.06-.45.11-.49Zm1.15,11.62-.27-.49-.44-.23,0-.22,0-.11-.11.11v.22l.27.56Zm-.77-12.55h.22v-.22h-.22Zm.33-4.74h.22v-.27h-.16Zm.5,29,.22,0-.06-.11-.16-.22-.33.11V40ZM306,37.82h.28l-.06-.22-.33.06Zm.55,4v-.22h-.27l-.06.27Zm.06,1-.06-.16-.16-.11.05.27Zm-.17-25.43.39.33.6.06.55-.11v-.33l-.55-.28-.22-.17-.11-.16L307,17l.33.16.16.33h-.44l-.55-.16Zm.06,10.9.66.06v-.5l-.61-.05Zm1.76-2.53-.61-.11-.27.6-.39.17-.11-.28-.33.39.11.49.28-.11h.22l.33.17.11-.61Zm-1.65-14.48.27.16.06-.38-.28-.17Zm.55.6h.44l-.06-.33h-.33Zm.22,29.79-.17-.06.33.28-.05-.11.05-.17Zm.27,2.7-.27-.11-.06.22h.28Zm.06-4.46-.28-.11-.05.33.27.16Zm0-21.2.33,0-.22-.33-.22.11Zm.22,25.16.22-.61.28-.49-.55,0-.22.67Zm.11-1.54.28-.44H308l-.22.22-.06-.06ZM307.77,17l.22.06.16-.17H308Zm.16-5.28,1.1.49.78.61.22-.33L309.2,12l-.88-.5-.28-.11Zm.55,8.42-.38.28-.17.55.44.49.72.22.05.33-.38.5.22.66-.17.17h-.22l-.11.38.39.17-.22.16-.06.28v.22l.11.55h.61l-.05.55.71-.06.44-.6v-.77l-.05-.55-.28-.17.55-.22-.05-.55-.72.17-.38-.17-.17-.39L309.2,22l.33-.16.5.33.66-.33-.22-.77v-.33l0-.77-.27-.44-.06.71-.27,1v.66l-.39-.55,0-.55-.34.06v-.22l.45-.39.33-.44h-.72Zm.39,6-.61.22-.16.66-.17.55.11.33.22-.33-.05-.55.38-.33ZM309,44.87l.06-.71-.77-.06-.17.5v.22l.06-.22.27-.33.17.16-.06.55,0,.06Zm-.82-12.66.05.16h.22v-.22ZM308.59,21l-.22-.22.28-.38.16.16Zm-.11-1.76.06.33h.55l-.06-.38Zm.45,14.65.1-.28.11-.33-.27-.11-.17.5Zm.1-9.75.67.06.16.55-.11.16-.55-.44-.39-.22Zm-.16,10.46.22.5h.66l.33.55h.17l.16-.11-.22,0-.16-.27v-.28l-.44-.38Zm.22-14.2-.16-.17h.33Zm.39,25.43-.11-.38-.39.27.28.22Zm-.28-27,.06.28.16-.22.39-.06-.17-.16Zm.5,25.22.05-.17-.16.06-.11-.17-.11.11.11.22Zm0-20.7-.28.11.17-.55Zm-.22,8.36.16-.16-.11-.22-.11.16Zm-.06,1.1.17-.11.05-.27-.11.17Zm.5-6.66-.39.17,0,.22.27-.06Zm-.22,16.91-.11.11.16-.11-.16-.17ZM310,13.33l-.16.16.27.06.06-.17Zm3,17.78-.55-.11-.49-.44-.39.49-.88-.33-.33.28.28.27.38-.22.28.28L311,32l.17,1,.38-.06.06-.66.33-.94.27-.27.11.49h.5ZM311.13,44.6l-.5.22-.27.55.38-.28Zm.77-7.11-.83-.49-.66.27.44.33.61.33Zm-1,8.37h-.33l-.06.39.22-.06Zm-.28-33.69H311V12h-.33Zm.28.61-.11.27-.11.33.22-.27v-.22l.27-.06-.05-.22Zm-.06,23.34-.16.44h.6l.22-.44Zm.22-5.78-.05-.28-.17.06-.05.22Zm.17-16.79-.06.6.28.06.11-.61-.06-.44Zm.6,1.26-.27-.05-.17.27.28.06Zm-.16,23.9-.28.33.22.44.17-.33Zm0-4.24-.17.05-.05.39Zm.27,2-.11-.28-.33-.05.06.16Zm-.11-22.19.33.39.11.77-.66.11.33.55.5.22.33.27.6.11.28-.55-.11-.27.11-.06-.28-.27-1.15-.5.16-.16.33-.22-.05-.22-.33-.06-.06-.33-.22-.27Zm2.48,31.55-.5-.88-.38-.44.05-.22-.16.11-.11.27-.39.17-.11,0,.17,0,.44.22-.55.55-.72-.22v.38l-.27.22-.11.22v.28l.22-.17V46l.49,0,.61-.22.77-.22-.22.33-.33.16h.33l.33.11ZM312.06,29l-.05.28.22.16h.27l-.05-.6Zm.44-.77-.05-.27-.17.11,0,.22Zm0,2.15v.33l.28-.06v-.33Zm0,10.4.61.66.27.17-.05.16.27,0-.05-.17.11-.27.44-.33,0,.27.39.22.22-.27-.11-.17-.5-.38-.38-.33.33-.44-.28,0h-.38l-.39-.33-.55.55Zm1.44-23.45-.23.06.11-.45h-.27l-.17.55.56.34.44-.56.16.45.39.55-.11.77h-.34l-.21-.66-.72.05-.11.55.05.17.28.6.05,1.38v.71l.12.94v.44l.21.33.5.39v-.55l-.27-.17-.06-.33.61.33.05,1.1-.44.06-.94.16.17.83-.83,1.15-.11.94v.77l-.05,1.32.82.28.06.16-.44.39.16.27.28-.16L314,30l-.17-.66-.22-.66.39-.17.55.17.22-.5-.38-.38.44-.72.44-.28.05.5-.33.38L315,28l.49-.5-.22-.66v-.49l.06-.94.6-.22.33-.6-.38-1.32.05-.66.28.16v.11l.11-.17v-.1l-.11-.28.16-.66-.22-.33.11-.28-.16-.66-.61.39-.27.16.16-.44-.6-.16.05-.17.33-.55.55.39.33-.44-.27-.33-.06-.22-.16-.33-.17-.5-.49-.55.22-.17.22-.27-.33-.39-.39-.27h-.22l.11.05.22.39-.05.39-.44-.28Zm-.83,21.64.11.16.16-.05v-.22Zm.33,3.68-.28-.22.17.33.16.17ZM313.33,41l-.06-.16.33-.22.17.11-.11.22Zm.61-14,.11.22-.39-.06Zm.11-1.05.33.06-.23.33h-.44Zm.27,16.68.88.17-.44-.66L314,41.9Zm1.49,1.6-.17-.22-.49.44-.28-.27-.39-.06-.05.61L315,45l.27.33-.44.17h.06l.27.22.33-.5.11-.49Zm-.55-23-.28.06L315,21h.27Zm.55,22-.11-.39-.22.28.11.33Zm.66,1.54-.39.11v.44l.33-.16Zm.55,1.32L317,45.7l-.33,0,.06.39Z"/><path d="M349.33,41.62l.06,3.42-.11,1-.5,1.05-1.15.55-1.05.11-3.36-.22-3.36.16-1-.16-12.44.11-1-.61-.72-1,.22-1.1.05-1.1-.11-2.15v-1.1l-.11-1.27.17-1-.06-1,.11-1.21-.16-1.15.11-2.21-.17-2.14.17-1.16V19.55l-.11-1,.11-1.16-.22-2.81.22-1.59-.11-2.21.55-1.21,1.6-.38L334.14,9l1,.11,2.15-.05,1.1.11,2.42-.11,1.1.16,1-.11,4.41.06,1.15.49.55,1.1-.16,1.05-.06,1.21.17,1,.11,2.25-.61,1-1.15.6L336.73,18,335,18.5l-.55,1.6.11,1.7.66,1,.94.6,4.34,0,1.27.11H343l1.1-.11,2.2,0,.94.61.49,1,.11,1.1-.11,4.35-.55,1.05-1.1.6-1,.06-1.16-.11-1.48.11L339.48,32l-1.1.11h-2.15l-1,.61-.5,1.16-.05,2.69.5,1.71,1.15.66,1.21-.11,1.21.11,1.05-.16,7.27.11,1.65.55.71,1.1ZM326.54,38l-.6.77-.11.5.44-.06.38-.38.22.71.44-.27.22.27-.44.39-.16.11-.06.38-.16.61.22,0,.55-.66.38-.6.5-.55.22-.11-.11-.39h-.77l-.17-.55.33-.39.61-.49-.06-.17v-.55l-.05-.49.05-.44-.11-.55.28-1.1.11-.83-.17-.72.06-.38-.44-.39-.28-.05-.22-.44-.27-.77.38.16.11.39.5-.06.05-.44h-.55v-.38l.55-.33-.16-.83.05-.6v-.94l-.22-.11v.16l.11.22h-.33l-.05-.6-.22-.72-.66-.77.33-.11.16.17.11-.44-.38-.66.16-.61-.33-.38.33-.5.06-.55-.5-.55-.49-.06-.28-.16-.11.16.33.17.11.11-.22,1-.11.77L325.94,25h.44l.22.33-.28.44-.33-.22-.39.33.34.77.44.49-.28-.05-.11.38-.22.61-.22.88.22.88.11.11-.11.77-.17.61.45.44.05.27.11.28-.27.22-.22.16.11.11.11.33-.28.56L326,34l.33.22-.22.66-.22.27-.11.11.22,0,.28-.28.33-.05.33.33-.72.33-.44,1.32Zm-.94-14.48.39-.22v-.66l-.39.44Zm.12-3.36.27.28-.05.16.27-.16.28-.77.44-.39.11.61.6.55.22-.11-.22-.11-.05-.28h.49l.22-1-.88-.49-.49-.11.05-.44-.44.22-.6.33v.88Zm.16,8.92.11.22-.22-.05Zm1-1.1-.82.33-.22-.22.27-.22.83-.39Zm2.2,17.4.44-.55.17-.5-.5-.11-.49-.49-.66-.06.11-.72v-.82l-.77-.44-.83.33-.44-.17H326v.33l.61.11.27.28v.61l-.27,0-.11-.39-.28.06-.11.5.06.66.33.27.44.28-.61.22-.33-.06.28.22-.06.5-.33.49.17.33.38.44.17-.16.16-.22.33.11.44-.22.33.27.17-.05.22.11-.22-.44-.33-.28-.5-.11.33-.44.55.11.55-.16.33.11-.33.16-.11.33.39,0Zm-3.13-5,.11.6.33.22v-.71Zm1.1-3.58h-.61l-.33-.28.61-.11.6,0,.06.38Zm-.44,3.14-.06-.28-.33.11.11.22Zm-.17,5.83.17.33-.39.06Zm.17-15.14-.28.17.17-.33.27-.39Zm-.22-12.88h.22l.27-.22-.22-.16-.11.21Zm1.92,3.74-.22-.33-.27-.38-.44.27-.33-.27h-.5l.83.93.6-.49.17.33Zm-1,11.23-.44.17v.44h-.17l-.11-.44.61-.44.11-.55.22.05.27.61.39,1.05-1,.16v-.27l.27-.44Zm-.5-6.11-.11-.38.17-.11.22.33-.11.38Zm0-10.4.11-.17-.05-.16-.06.11Zm.06,0,.22.44.77-.17.33-.16-.44-.06h-.55Zm.38,26,.28.61-.22.11-.17-.55-.16-.28ZM327,10.63l0,.22.17-.17.16-.11h.28l-.22-.22Zm1,2.42-.44-.38h-.44l.05.33.17.22-.17,0h.28l.27.11ZM327.26,29l-.11-.11.38-.11Zm.33,8.26-.22-.5.49.06Zm-.17-3,.22.06.06.22-.28-.06Zm.17-19v.33l.27-.11Zm.05,9.47.06.38.38.11v-.38Zm.44,19.87.06.72-.5-.72Zm-.22-33.31-.16.11v.17H328ZM328,24.12v-.28l-.33-.33v.33ZM328.19,40l-.38.16.05.28.39-.17Zm-.11-14.21.11.22.11.17v-.28l-.22-.33Zm16.3,18.12,1.15-.39,0-.55-1.16-.22-1.15-.11-1.16.11-1-.06-1.16.11-1.16-.16-1,0-1.32,0-.88.11-3.41-.11-1.21-.55L330.28,41l0-1.1.11-1v-1l.11-1.21-.17-1.1.17-1.21-.17-1,0-1,.11-1.1V30l.44-1,1.1-.55,1.16-.11.93.11,8.87.05.93-.38.17-.67-1.21-.22-10.9-.05-1.05-.44-.39-1.1.06-1.1-.22-1.21.11-1-.11-1.1.11-1-.06-4.41.56-1,1-.6h1.1l1.1.11,9.91-.06,1-.44-.11-.55-1.6-.27-2-.11-5.06.16L335,12.78h-4.4l-1,.71-.49,1-.11,1,.16,1.16L329.07,18l.17,1-.11,5.56.11,1.21-.17,1.05.17,2.2-.17,1.1.17,1.16V39l-.11,1.16v2.09l.55,1,1.16.61L333,44l1.1-.11Zm-12.44,1.81-.83-.82-.72-.17h-.33l-.22.72-.6.71.6.44.67-.77.22-.49.55.66.6.33Zm-1.88-35.12h.22V10.3h-.22Zm4.46,27.75-.44-1.16-.44-.55-.55-.66.66-.44-.05-.77-.61.16-.38-.82-.28-.28.44,0-.49-1.49-.11-.55.22-.11.38-.22.39.49-.55.5.27.38h.22l.39-.77-.28-.82.11-.17.61-.33L333.7,30l-.83.66-.66.33-.66.16-.33-.16-.11.49.55.72-.44,1.21v1.21l.11.88-.22.77.83.39-.39.22-.16,1.21L331,39.26l.39.71.71,0,.28.27-.17.22-.16.39-.11.49.6.33h.55l.33-.44.33.77.17-.22h.27l.11-.6h.17l.44.66.66-.17h.28l.27-.82-.16-.61-.77-.49-.45.38-.27-.22.38-.88Zm-3-19.6-.11.22-.11.16.38-.22v-.33l-.27-.22h-.17v.22l.11-.11Zm.82-1.77.06-.33-.5-.22-.49-.16.38.44Zm-.82,7.44.55-.06V24h-.55Zm.44-8.54.33-.11.05-.22h-.22l-.38.33Zm.11,4.3v-.39l-.28.17,0,.38Zm-.11,13.43-.17.22,0-.27Zm-.06,2.15h.28l-.06.27-.27-.05Zm0-.94h.33l0,.33-.28.06Zm.22-4.35.17-.05h.11l.55-.44-.44-.5-.55.5Zm.17-7.76h.33v-.28l-.17.06Zm0,18.17.38-.11v.27Zm1,5.72L333,46l-.66-.27-.11.38.55.33Zm-.77-8.36-.06-.17.28-.05Zm.16,1.26.11.33-.33.11v-.38ZM333,19.22l-.16.93.22.06.38-.94.22-1-.16-.27-.11.11.11.16-.28.11-.33-.11.06-.11h-.22v.17Zm.94,26.59-.28,0-.16-.11,0-.16-.16.16-.22-.22-.22-.05.16.22.28,0,.16.28.39,0Zm-.17-8.21.33.28-.49.39-.61-.06.06-.33ZM333,23.07l.33.06.05-.45-.33.06Zm.6,17.29.28.22-.5.11-.38-.06Zm.5-16.57-.06-.22.17-.17-.11-.11-.55.28-.39.44-.05.22h.16l.28.16.33-.55.38.28.39-.06-.17-.27ZM333.86,15h-.33l-.16.27.33.06Zm-.44-4.85.28-.11.27,0,.44,0,.11-.16-.16.11L334,9.8l-.5.11Zm.17,27.2-.17.22v-.22l.11-.11Zm-.06,1.87.44-.27-.05.49Zm.28-17-.06.17.17.22v-.22Zm1.1,9.58-.39.33-.55-.44v-.22l-.16-.11-.06.17.22.16.28.5.55,0ZM334.14,11l-.06.17.17.05.05-.22Zm.66,5.45-.39-.16-.27.16.27.22Zm-.17,14.26.06-.22h-.33v.33Zm.17,15.64h-.17l-.05.27.22-.05ZM335,17.07l-.11-.17-.22.11Zm.5,24.06-.77-.06.22-.38.22-.33Zm.39-9.91-.06-.22-.22-.06.16-.33-.1.11-.39.17-.28.22.28.27Zm-.61,0-.28-.11.28-.11.39.11ZM335.73,45l-.1-.11h-.34l-.27.44.05.72.17.38.22-.22-.17-.71v-.61l.28.17Zm.45-15.74L336,29l-.23.11.06.22.39.22Zm.38,11.67h.55l.39.33.16-.17-.27-.49-.72-.11Zm1.1,5.45-.44-.22-.55.33v.22l.11-.22h.39Zm.83-15.69-.28-.66h.22l-.22-.39-.49.39v.49l-.22.06h.27l.22-.17.33.44Zm-.94,9.63h.17l.11-.11-.22,0Zm.39.44.05.44.39.17-.11-.5Zm.38-25.65-.16-.17-.17-.11.11.11Zm.33,31.43-.22-.16v-.5l-.27-.27-.06.33.17.44.22.27Zm.06-5,.05.06.06-.33-.06-.17-.05.11Zm.27.11-.11,0,.28.16.49-.77-.05-.66-.22,0v.66Zm1.21-.71.22.05.17-.05-.17-.06Zm1.05,4.73-.16.06-.06.22h.22Zm.17-4.13,0,.11.06-.16-.11-.22h.44l.27-.39-.44-.05-.27.44ZM342,46l-.16-.22-.28.28.28.22.16-.17Zm-.38-35.62.11.11.05-.22-.16-.16ZM342,45.26l.22.05-.11-.27h-.22Zm.22-20.37.38.05.06-.38-.44-.06ZM344,30.06l-.6-.27.05.22.28.27Zm-.55,11.4h.22v-.22l-.11.11-.11-.11Zm.83,5-.22-.44h-.5l.17.33.44.22Zm-.61-21.58.44-.17.06-.27-.39.05ZM344.6,46l.16-.27.17-.22.22.16.05-.16-.05-.11-.22-.06-.17.17h-.38l-.06.33Zm-.06-5.89.28.28.22-.11.16.11L345,40Zm1,6.28.11-.28.28.06-.28-.11-.88.55.44.05.56.17.05.16V46.8Zm-.66-18.83L345,28l.39.55.22-.6-.28-.61-.16.16ZM346,30.17l-.17-.11-.44-.27-.16-.66-.33-.06-.06.55.22.5v.27l.33.06.39-.17Zm-.77,10.63-.06.16.17.11.05-.16Zm.22-29.4,0,.22.11.11V11.4Zm0,14.92,0,.38.39-.05-.16-.22Zm.66,18.61-.38-.33-.23.11.33.6ZM346,29.51l-.22-.11-.05.17.27.11Zm.17-3.36h.33l.16-.16-.11-.11-.27.16Zm.71,18.56.83-.39-.11-.55-.11.39H347l0,.16-.22.11h-.27l-.11.11Zm-.33-4.13.55.44h.72l-.33-.39-.55-.22-.17-.11Zm1.54,4.73L348,45l-.55.44-.55.38h-.16l-.06-.16-.05.16.33.28.38.33.17-.11-.17-.06-.16-.22.55-.16Zm-1-2.2-.11-.28h-.17v.23Zm0,.55.16.06.06-.22-.22-.06Zm.82-.16.17-.56-.11-.33-.39,0-.22-.17v.28l.22.55.11.39ZM347.57,14l.22.11.06-.22-.17-.17Zm.77,28.29-.11-.27h-.38l.16.27Z"/></g></g></svg>